<svg xmlns="http://www.w3.org/2000/svg" width="1383.634" height="804.394"><defs><clipPath id="a"><path d="m791.8 460.322-1.867-5.068-2.8-.267v-3.2l-2.934-3.2-2.4-2.4h-3.6v3.334l-3.068 3.2-4.935-.8v-3.2l-2-1.734v-4l-4.4-.667-4.935-2.267-4.8.534-4.668-.667-2.668 3.2-1.334 4.268-3.068 3.2 1.2 4.268-1.6 5.068-4.135 4.135v7.736l-5.868 4v4.668l-2.534-3.468v-3.868l-2.934-2.934-2.8 1.2-.667 3.6-7.336 2.8h-3.468l-1.334 4.135-2.267 3.334-4.8.4-5.335-5.335-.534-11.2.667-6.669v-6.135l.8-5.6v-5.473l-3.868-1.6-2.8-.934-.4-2.668-1.2-3.068-2.534-2.534v-2.934l1.734-1.734.4-4.135-2.4-2.4h-3.2l-3.468-1.734v-3.2l1.334-1.334-1.467-1.467-1.2-4.935-2.8-4.935-3.334-2.4-3.735 1.067-3.6.267V400.3l2.934-.8v-2.934L666.7 393.5l-1.2 2.534-1.867 1.867-2.667-.667-2.934 2.934-2.934 1.2-1.867 4v4.135l1.6 4.268-1.334 3.735v3.068l3.868 3.868 2.4 2.4-1.067 3.334-1.6 2.668 2.934 2.8-2.8 2.668-2 1.467v5.869l-2.267 1.467-.934 4-3.868 1.6.934 5.335-1.6 1.6-.667 4.935.934 4.4 2.267 1.067 3.735 3.735 1.467-1.6 3.6 1.334v4l1.2 3.334-2.4-.4-1.734 3.068-1.334 2.534.8 2.134h3.6l1.6 3.468 1.2 3.2-2 2-2 3.334v2.934l-1.2 2.534h-3.2l-2.8-2.8h-3.735l-1.467-2.534-3.468-1.467-.8-2.4-2.8-.667-3.868 2.4-1.067 4.4 2 4.668-2.934 4.4-4.935 4.8-3.2 4.668-1.2 4.8-1.734 4.135 3.2 3.068-3.068 2.134-4.268-2.934-2.134-5.068-3.734-3.6-3.468 1.734-1.467 4.8-5.6 2-4.4-.667-4.668 1.067-.133 6.669-2.534 2.534v6.269l3.068 3.2 2.134 5.068v2.8l-3.468 1.867-1.6 4H586l-.8 4.135-1.6 3.6 2.4 3.468.133 3.6-1.734 1.334v5.068l.934 2.934-1.6 2.8.533 3.6-6.4.4v2.667l-2.8-.4L574 600.9l4.135 2.668 6.4 6.4 2.934 1.734h4l3.334 2.534 5.068.667 4.135 4 2.8 1.334h4.935l2-2 4.135 4.135 9.336-9.336 3.6 2.267-1.067 2.534 4.135 2 2.534 2.4 5.468 1.6 2.534 2.534 2.8 1.467 3.2 3.2 7.069-1.467 6 5.6h3.6v3.2l2.4 4h6.4l1.2 4 4.935-2.8h3.735v-6.536l5.068-5.2 6-7.069 3.068-7.736 7.869-7.869 8.936-10.8 1.334-15.872 3.2-10.4-4.8-1.6-4.668-21.741 1.6-3.2 2.4-2.4-3.868-2.667-3.735-1.067-1.334-6 7.069-5.2h3.468v-4.535l3.334-1.467 4.8 1.6 5.068-1.734v-4.4l3.468-2.534 1.867 2h5.6l3.334-2.267 2.134 2.134 6.936 1.334 2.8-2.8 3.068 1.6 4.4-4.4h3.334v-8.67l4-2 2.534-5.2 4.135.934 2 2-4.8 4.535 4 .4 3.334-1.867 5.092 1.323 2-3.868 3.468-2.134.8-4.4-1.6-1.467v-2.8l-3.6 1.467-6.4-6.4 1.734-4.535-2-2 1.734-3.868-1.6-1.6 3.868-3.868 3.6.267 2 2.134h2.8l2.668-2.134.8-2.4Z" transform="translate(-574 -393.5)" fill="#ddd" stroke="#fff"/></clipPath><filter id="b" x="725.844" y="589.834" width="224.074" height="64.72" filterUnits="userSpaceOnUse"><feOffset dx="-2.182" dy="2.182"/><feGaussianBlur result="c"/><feFlood flood-opacity=".251"/><feComposite operator="in" in2="c"/><feComposite in="SourceGraphic"/></filter></defs><path d="m97.236 425.996 2.934 3.735 1.334-3.868h3.2l1.334-2.267 1.2-2.667.4-4.668 2-2 .4-2.8 3.334-2.934-1.867-1.867 1.867-1.734 2-1.067v-3.068l1.867-1.067 2.134-2.134 3.068-1.334.934-3.2-2.267-1.734-.8-1.867 1.734-1.6v-2.8l1.6-1.734 3.735-.267-.934-4.4 1.2-4-1.467-3.2-.133-3.2-2.934-2.934 1.467-2.934-2.668-3.2-5.2-.133-3.735 5.068-4.668 1.734-.267 3.334-2.4 2.934-5.6.267-2.14 2.656v4.668l-5.335 3.334-3.6.8 1.067 4-2.4 4.535-4.268 4.135-.667 3.2 2 4.4 3.2 3.068-1.2 3.6-1.334 3.334 4.268 1.067 3.735 3.6v7.6Z" fill="#ddd" stroke="#fff"/><path d="m89.229 429.864-1.6 3.332-4.4 1.334-1.867 4.935-2.4 5.735-1.333 5.337.267 3.868-2.267 1.468 3.334 3.334-1.334 4.935-1.067 4.4 3.334 1.867v3.868l2-2.134 2.267-3.6 2.934.267 3.334-1.734 2.934-.667 3.334-3.2h2.934l2.267 2.267.667 2.668 3.2.267 1.067-1.067 1.867.534 3.2 2.534 2.4-2h3.068l4.135-.8 1.6-2.534 2.934-2.934 4-1.734 1.2-3.6-1.2-2.4-2.668-2-1.6-3.334-1.734-1.867v-2.273l-3.868-1.067-3.468 1.067-4.4-1.2-2.134-2.134-3.334-1.867-2.534-2.534-.8-4.535-2.934-1.6-.4-1.334-2.934-3.735-3.868.4Z" fill="#ddd" stroke="#fff"/><path d="m72.294 469.877-4.4-1.467-1.334-3.334-2.535-2.668-3.334.133-1.067 4-2.934 3.334-4.136 4.27-2 3.6 2 3.334 2.267 2.267 3.068-2.534 2 2.934 2.4 2.668 3.334.4 2.4 2.4 1.867 4.535-.534 3.468-1.467 6 2.4.133 1.6-2.267 3.2-1.067 1.867 1.467h2.8l2.4-2.4h2.4l.534-2-.667-2 2.134-.8h2.4l1.867 1.734 1.2-1.2.667-2.8 1.334-1.334-.4-3.2-2.134-2.134v-2.668l1.6-1.734v-3.2l.934-3.334-1.734-1.734.267-2.267-2.134-3.334-3.334 1.734-2.934-.267-2.267 3.6-2 2.134v-3.871l-3.334-1.867Z" fill="#ddd" stroke="#fff"/><path d="M64.559 523.095v-4.668l-2.535-4.535-2.4-3.735 2.267-1.734 1.334-3.334h2.668l2-1.867 2.4.133 1.6-2.267 3.2-1.067 1.867 1.467h2.8l1.2 1.867 2.4.934 1.6 1.334v3.6l2.534.667.667 2.134 2.4 1.067.667 4.935 2.4 4.135.8 5.068 2.4.533 1.867 1.734v3.735l2.8.534 3.068 2-2.668 2.668-3.334-1.2-2.134 2.267v3.2l-2.4 1.067-.934-3.468-3.468-3.334-4.935-3.2-3.2.667-6.135-1.2v-2.4l-3.2-3.468-1.467 1.6h-3.864l-4.535-1.067Z" fill="#ddd" stroke="#fff"/><path d="m82.698 571.778-1.334-5.2-3.334-2-3.468-4 1.334-4.668-1.334-6.8-4.268-3.2-4.937-3.747-1.467-5.068-3.333-2.663-1.2-3.2 2.934-3.335 4.535 1.067h3.868l1.467-1.6 3.2 3.468v2.4l6.135 1.2 3.2-.667 4.935 3.2 3.468 3.334.934 3.468.934 2.934-2 1.6 2.8 2.8-1.734 3.2h-2.267v4.4l.8 3.2-3.468 1.734v3.868l-2.534.133.667 2.8-3.868 2Z" fill="#ddd" stroke="#fff"/><path d="m83.365 572.445 3.868-2-.667-2.8 2.534-.133v-3.868l3.468-1.734-.8-3.2v-4.4h2.267l1.734-3.2-1.6-1.734-1.2-1.067 2-1.6-.934-2.934 2.4-1.067v-3.2l2.134-2.267 3.334 1.2 2.668-2.668 3.868.534 1.734 3.468 4 1.334-.8 4 2.668 2.667 3.468.4 3.2 4.4 2.267 2.134-1.2 3.468 2.668 2.668 4.268 1.734 1.467 2.8 2.534 2.534 1.334 4.4 1.867 4.535-1.734 1.6h-4.4l-3.468-1.867-.8-2.4-3.2-.667-3.068 2.8h-6.4l-1.6 5.335-5.2 5.2h-5.739l-2 2h-3.068l-1.6-2.134h-3.872v-2.8l-1.734-1.734-3.735-1.734v-4.668Zm-49.349 124.44-3.334-1.6-4.8-3.334-1.6-5.335-3.334-5.068-1.067-4.4 2.668-2.8 3.2-.4 2.129-2.271h2.27l1.2 2.668 2 2.934h4.268l3.334-4.268 2.668.934v3.468l2.4 1.6.667 2.8 1.2 1.867h-3.866l-1.2 2 1.867 1.734 1.067 2-1.2 2.667-3.068 1.334-2.134-.267-2.668 2.668Zm8.002 15.606.934 7.069 3.068 3.068 4.935.667 2.8 2.8.8 2.4 2.134-3.6h3.334l.267-2.4-.934-3.468.934-5.2 3.068-1.2 4.535.133-.934-3.735-4.268-3.87-1.734 1.467v2.668l-1.6 1.6-4 .267-1.339 1.334-2.267-1.867h-2.8l-2 1.2-1.867-.4Z" fill="#ddd" stroke="#fff"/><path d="m67.494 721.694-2.138 4.53-2.534 4.268-3.468 2.4-1.067-4-3.735-.4 2.134-3.6h3.334l.267-2.4-.931-3.468.934-5.2 3.068-1.2 1.467 2.934 3.6 2.668ZM99.77 711.42l-2.267 2.4v3.6l2.4 2.4 1.334 4.135-1.2 4.268-.934 3.868-2.534 2.534v1.6l-2.267 2-4.935 8v6.269l1.334 7.469-.8 5.869.4 7.069-5.335 2.4-3.6-1.467-5.068 1.734-4.941-1.057-.667-4.268-2.4-7.336-.4-5.335-3.6-2.4v-2.934l-1.733-4.669-3.2-4 2-3.334 3.868-.533 2.4-1.867 3.735.267 2.267-1.734 3.735 2.134 1.334-5.2 3.868-4.668 4.135-2.267 2.267-.8-.4-5.068-4.535-.4-2.534-3.334-3.2-3.468 1.334-3.468-2.267-1.2v-1.867h2.668l1.6-1.467-1.068-1.875 1.734-1.6 2.934.934 3.334-1.067 3.468-2.267 3.068 2.134 1.467 2.4 2.4.8 1.067 2.8Z" fill="#ddd" stroke="#fff"/><path d="m102.572 712.224 4.668-1.334h4.135l3.868-4.4 3.068-1.334v-3.2l-2.4-1.6-3.068-.133-.667-1.734 7.336-5.068v-2.134l-1.467-1.334v-2.667l-1.6-2.267 1.734-1.734 2.534 1.067.4 1.734h1.6l.4-2.8 4.668.4 1.467-3.6-2.267-2.267 1.6-5.6 2.534-1.467.667-2.534.533-2.8-4.935-.133-2.134-2.934-.4-4.268.667-3.334.667-3.735-2.668-1.734-1.2-4.4-4-.934-2.4-2.267v-2.813l-2.134-.8-1.6 4.4-2.267.934-2.267-2.267-2.668 1.067-2.4-2.4-4 3.6v4.8l2.8.133 3.334-1.734v3.334l-2.267 4.4-4.535 3.334H92.84l-4.668 4.935-2.668-.667-1.067 1.067-2.4-.934-1.734-1.734-1.6-6.669-2.668-.667-2.144-2.132v-2.93l-1.2-3.2h-2.53v2.267l-1.6 1.6h-4.135l-2.134-1.6-2.801 2.263 2.534 1.334.934 2.8h2.267l1.865-.663.934 2.934 1.867 1.867 3.868-.8 2.534 1.067.4 3.334 2.134 2.4.667 2.8 2.134 2.134 1.467 4-1.6 2.934 1.734 3.068 2.267 2.267 1.734 2.4v2.668l2.4 2.267.534 3.468 1.867 2.8v5.068l3.068 2.134 1.467 2.4 2.4.8 1.067 2.8-.267 3.868Zm217.805-33.078 1.467 3.2 3.068 3.068 2.134 2.134.934 3.735 3.068 3.2-3.068 4.135-2.934 2.934h-4.935l-4.935.267-2.534-2.534-1.867-3.6h-2.267l-2.4 2.4h-3.871l-4.268-4.268-.934-2.534-3.2-3.335v-5.6l-2.8-2.8h-5.068l-4.268 1.6-1.6-3.334-4.135-3.334-3.868-2-5.068 2.4-4.668.667-3.735-1.067-2.668-5.2-3.868-3.334-2.668 4.535h-2.8v-3.6l2.668-2.668-1.867-3.735-2.134-5.869-.934-6-3.334-4-5.335-2-1.6-3.735-2.8-2.934-5.335.934h-3.2v-4.268l-1.467-4.4.133-2.534h7.861l2.267-4.668 4.268-3.068 2.534.667 1.334-2.934 6-1.067 3.068-7.069 5.068-2.8 3.868-3.868 1.467-6.269h3.6l3.735 3.735-2.528 2.654 2.267 2.134 1.334 2.4-.133 5.735 1.6 1.734-1.2 6.135 2.534 1.6 2.934 2.934 1.867 4.935v4.8l1.467 3.068-1.2 3.068v4.268l-.934 2.134 2.534 1.467 2.4-2.267h3.735l1.334 2.4-1.334 3.334-3.6 1.467.8 1.734 2.4.533-.667 4.4-1.467 1.467.8 3.334h2.134l.4 2 2.668 2.668 2.668-1.334 2-2 2.267 1.2.934 2.267 2.267 1.734 2.934.8 2.8-2.267 1.867-4.4h7.869l2.668-.934 3.6 1.6h2.272l1.467 2.8-1.067 2.8-4.135 2 .267 2.8h2.4Z" fill="#ddd" stroke="#fff"/><path d="m367.725 651.537-5.6-1.067-4 1.067-3.468-3.068-5.2-2.668h-4.668l-1.467 4.8 1.467 3.334-3.068 3.2 2.4 1.467 2.534 2.534 2.934 2.934-2.8 2.8h-3.068l-3.735-3.735-5.869.133-3.735 1.6 1.6 5.6-1.6 4-3.735 1.067-4.535-1.067-1.734 4.668-.667-3.6h-2.4l-.267-2.8 4.135-2 1.067-2.8-1.467-2.8h-2.267l-3.6-1.6-2.668.934h-7.873l1.334-2.267 3.468-1.6.667-3.334 2.934-5.468h2.4v-3.868l2.934-3.868v-2.534l4.535-4.535 3.468-1.2v-1.6l3.735-.267 1.6 2.134h2.534v-4.268l-1.467-4.935-5.469-1.734-2.4 1.6-5.468-.534-2.8-4.535-.667-6-2.134-2.134-.934-4.268 4.8-3.6 3.334 1.067 3.735 1.734 2.4 2.534v3.068l4.668 1.6 2.934-2.934 5.068-1.2v-2.668l2.668-4.935 1.067-3.468-.934-3.734 3.068-1.2 3.735 2.534 1.2 2.267 4 1.334.8 1.6 2.934.4 3.068 2.934 2.8-2.668 3.2 1.734 2.4 2.4 2.267 2.4.133 4.935.667 5.6-2.134 3.334h-3.728l-2.267 2.134 1.334 4.268-2.134 2.134h-2.934l-.8 3.068 2.534 2.534 2.8.133.667 2h4.4l1.734 4.4-3.2 3.334Zm133.111 40.547-3.735 3.735-6.269 1.734-5.335 2.934-2.4-3.6-4.668 2.267h-3.735l1.334-6 5.335-2.534v-3.068h-4.535l-4-2.4-2.4 2.4-4.4-1.334 1.467-5.2-3.334-3.2-4.4 2.668-4.935-1.334-1.2-4 2.8-2.667v-4.268l1.067-3.068-1.734-5.6-3.334-1.6v-2.667l1.2-2.534 2.267-2.267v-3.068l1.867-.267 2.4-2.4.8-2.268V638.6l5.6-5.6 4.268-.8 1.6-1.6v-2.934l-3.334-1.867-1.067-2.534-2.134-2.134-2.934-1.467v-2.534l3.462-1.738-1.467-4.4.267-3.6 3.2-3.334 1.467-2.668 3.34-2.27 3.6 3.468-2.267 2.134v2.668l3.068 1.067 3.868 1.2 2.4 1.067 2.934 1.867h4.4l1.6-2.134 3.735 2 3.334.934h5.335l4.4-2 3.6-3.6 2-2.8.667 2.134-1.067 2.8-1.334 3.068v4.4l2.534 2.667-.8 5.6 2.534 4.935 1.334 3.868v10.67l-3.6 3.6.8 2.4v3.335l-1.734 1.6-3.068-1.067-2.934 1.067-4.135 4.935-2.534 6.135 1.067 7.869v4.4l2.267 2.267v2.668l-2.534 2.4Z" fill="#ddd" stroke="#fff"/><path d="m523.11 711.29-2.4-2.4-2.534-5.468-2.8-2.8-3.868-1.467v-4h3.2l2.667-3.6-1.2-3.068h-4l-3.334 3.334-4.668.133-3.334.133 1.867-5.335 2.534-2.4v-2.668l-2.267-2.267v-4.4l-1.067-7.869 2.534-6.135 4.135-4.935 2.934-1.067 3.068 1.067 1.734-1.6v-3.335l-.8-2.4 3.6-3.6v-10.678l4.8 1.2 2.668 2.668h5.6l6 .8 4.935 2.668 6 2.534 3.735 3.735 3.068 2.934 4.4 6.135h9.6l3.868 5.335h4.535l5.335-1.334 3.2-3.2 2.8 1.334.8 5.735v4.135l1.734 1.734-2 2.134 2.4 2.4 2.8-2.8 2.934-3.334 5.6.4.667 7.336 1.6 3.068 1.067 6.669-.8 9.6 2.8 4.135-7.336 4.135h-4.268l-3.068 2.4-2.934-1.734-3.068 3.068-2.668-2.668-4.268 4.268-1.867 5.068-2.934 1.334-3.068-4.4h-2.534l-2-2.934v-3.2l-4-4-2-2.134-4.668.267-6.4 2.134-6.536 4.935h-7.336l-4.4 1.734-3.334 1.2-2.4-2.534-1.6 2.267Z" fill="#ddd" stroke="#fff"/><path d="m592.066 772.643-3.2-2.8-4.135-1.867-2.668-2.8h-5.735l-2.8 2.8-5.468.934-2.267-2.267-4.935.934-2.668-2.668-2.4-2.4v-3.334l-2.4-2.934-3.6 1.067-2.4 5.2-4.935.8-2.934-5.735-1.467-5.068-1.2-5.869-3.744-6.67v-5.335l-3.6-3.334v-7.336l-2.668-8.8-3.732-3.875 2.668-1.2 2.4-2.668 2.4 2.534 7.736-2.934h7.336l6.535-4.935 6.4-2.134 4.668-.267 6 6.135v3.2l2 2.934h2.534l3.068 4.4 2.934-1.334 1.867-5.068 4.268-4.268 2.668 2.668 3.074-3.063 2.934 1.734 3.068-2.4h4.268l7.336-4.135 2.668 5.2h4l2.934 5.468 2.4 2.534.934 4.135 3.468 2.134h3.334l.133 3.068-3.334 1.467 2.4 4.135v3.468l1.334 3.735-3.6 1.6-2 3.6 2.4 2.4-1.734 2.534h-2.267l-2.134 2.8-4.268-2.668-2.668 2.668v3.334l-2.4 2.534-2.934 3.068h-3.735l-5.869 2.134-4.668 1.467-2.134 2.134 2.934 3.068 1.867 1.867v4Z" fill="#ddd" stroke="#fff"/><path d="m659.821 793.184-5.2 1.2-3.735 3.6-6.669-.133-5.468 3.068-2.934 2.934-6.4-1.2-2-3.334-2.534-4.4-1.2-4.535-3.468 3.468-5.735 2.134-5.335-1.734-6-1.6v-5.335l-4.668-2.8-1.734-4-3.868-2.534-.8-5.335 4.268-.267v-4l-1.867-1.867-2.934-3.068 2.134-2.134 4.668-1.467 5.869-2.134h3.735l5.335-5.6v-3.334l2.668-2.668 4.268 2.668 2.134-2.8h2.267l1.734-2.534-2.4-2.4 2-3.6 3.6-1.6 4.268 3.868h4.4l3.735 2h2.267l.133 4-2.8 2.668-3.2 3.334.934 4.268-2.134 2.134 4.535 4.668h3.6l2.267-4.4h2.268l.667 5.068 1.467 4.935 5.068 5.068 4.135 3.868-.934 3.2-3.735.8-1.6 1.734 3.334 3.334v3.6Z" fill="#ddd" stroke="#fff"/><path d="m767.99 743.701-3.468 3.468-2.8 5.6-2.934 3.068-.934 5.735 2.8 3.334v4.935l3.868 4v5.335l-5.2 3.334-5.068 5.068h-10.67l-6-1.6-6.135 1.2-4.535-1.334-6.4-2.267-3.6-3.6-4.135-4.135-5.2-1.6-6 2.4-3.735-3.735-4.8-2.134-3.868 3.868h-4.935l-1.467 4.668h-5.868l-7.336 4.668-4.4 4.535h-4.4l-.952 4.672-1.6-3.2v-3.6l-3.334-3.334 1.6-1.734 3.734-.8.934-3.2-4.135-3.868-5.068-5.068-1.467-4.935-.664-5.072 2-2 3.868.934 4.268.4 4.268-4.268v-4.935l4.8-2.534 3.868 3.868 5.068 1.867h5.068l4.535 2.267h3.468l4.668-2 6.535-5.6 4.668-1.334v-5.735l3.334-3.334v-3.6l5.068-1.334 1.334-8 2.267-2.267 5.735 1.067 4.268-4.268 4.935.267 1.867-1.867 2.534.8 1.067-2.8h4l3.334 2.534 5.068.667 4.135 4 2.8 1.334h4.935l2-2 2.267 2.267 1.867 1.867-2.668 2.667v3.868l-2.267 2.4.8 3.735 2.134 2.134Zm381.059-78.026-2.534 2.534-5.068-1.334-4.268-1.067-6.4.934h-6.135l-2.4 2.4-6.669 2.4-6.669-1.334-2.8-5.468-3.2-3.2-3.734-3.068-4.268-4.268-5.335-.934-2.267-5.335-5.068-4-3.6-3.6-4.935-1.334-1.734-4.668-4.4-2-2.667-2.668-8.936-.934h-4.668l-5.335 2.934-6.669-1.067-5.068 1.734h-5.6l-7.6 5.6-3.6 3.6-3.2-5.6-1.467-2.934h-3.734l-1.067-4.8-1.867-2.934 3.334-2v-1.467h-1.734l-3.068-3.2-2.4-.4.534-5.735-1.467-2.534-1.6-4.4-3.6-1.734-2.534 3.6-2.668-1.067-.267-3.735-1.734-1.734-2.668-.667-2.668 2.668-1.334 3.334-4.535-1.2-1.467-2.8 2.668-3.334-1.6-2.534-3.068 1.067-3.868-1.067-2.667-2.668v-2.668l3.868-3.868 4.268-3.6h4.244l2-2 2.4 2.4 3.334.667 1.467-1.467h4.4l1.867 2.4h2.8l.8-3.334 5.6 1.067 2-2 4-.8 3.735 1.734 4.668 4.668 3.6-1.6 4-.934 1.867-2.534 3.068 1.334 2.267-2.267h2.534l2.4 2.4 8.8-8.8 4.8.8v-3.068l6-2.267 4.268.8 4.4-2.8-.267-4.535 7.2-4.268 6.8-5.6 1.734 1.067 2.8-1.467 2.534-3.2 3.6-.533 3.068-3.068 4-.8 4 2.267-1.467 3.868.133 3.068-2.8 3.868v6.8l-1.467-.133-1.2 3.068 2.4 4v3.068l-2.668 1.467-1.6 3.735 2.8 3.468 5.469.8 1.867-1.734 3.468-1.2 6.135 8.4 2.668-2.4 2.8.133 4.135-6 4.268-1.6 1.467-1.467-.934-4.135 1.2-3.468 4.268-.8 2.267-2.267 2.4-4.135 4.135-.4 3.868 3.868 1.2 6.8 4.135 2.8-1.6 5.468-7.2 2.668-3.868-.133-1.734 2.4 4.535 4.535.133 2.934-4 4.535-.534 6.4-3.735 3.468-.133 3.068-3.068 3.6 2.667 4-2.134 3.868.934 8.936 2.4 2.4h2.267l2.534 3.868 1.867-1.867 4.8.533.8 3.468 4.135 3.068.4 3.2 1.867.533 2.534 1.867.133 5.335-2.134.934.934 3.468-1.067 2.667.4 4.935-4.668-1.734Z" fill="#ddd" stroke="#fff"/><path d="m1198.665 645.933-5.335 2.934-1.334 4.4-3.6 5.735-4 5.068 1.734 5.6-4.668 3.734-4.668 2.668-4 1.334-1.067 4h-4.268l-4.135-2.267-3.068-1.067v-5.068l-3.6-3.2-2.934-2.934-.4-4.935 1.067-2.667-.934-3.468 2.134-.934 2.4.4 2.4-3.6 2-2-.4-4.668 3.6-.534 3.734.667 5.068-2.4 3.6 1.734 4.4 5.2 2.8-3.868 6.135-1.334 2.267-4.135 4.535-.534 3.868-1.467-.4 3.6 1.467 1.467-.53 2.539Zm56.019-14.402 2.4 6.4 1.867 7.2 1.334 6.4 1.334 8.669v8.4l-1.334 4.535v19.34l-1.334 8 1.334 8.136-.534 10.67v5.2l-4.4 7.336-2.934 6.135-3.334 6.269h-2.8l-5.6 2.267-4.668 2.668-3.2-1.334v-3.068l-1.734-1.6-1.6 3.735v4.135l-1.867-1.867-2.934-2.934v2.267l-.934 5.468.934 3.868-1.2 4.268-1.867 1.867v5.869l-4.268-.267-1.734-1.734 1.467-5.2 2.668-5.335v-4.4l-2.267-5.2-4.8-4.8-2.4-2.4-2-5.2-4.268-4.135-4-1.334-.133-4.4 2.8-2.8 2.4-2.4v-4.4l3.2-3.2 3.468-1.734 3.734 1.2 3.2-3.2 2-4-3.6-5.6 1.867-4.668-2.267-4.8-.4-5.2-3.2-4.135.934-3.6-2.4-4.268 4.268-.533v-1.867l-2.4-2.4.534-4.268 3.868-5.335 3.2.934.8.8h3.068l1.067-1.6 4.535.667.4-1.334 4.535-.667 3.6-4.535v-6.269l-2.668-.8.667-3.6 5.335-2 1.334-3.068.534-4.4-1.734-4.268-1.734-.4-1.334 2.668-3.735.4-1.067-3.068-4.135-.533-.667-3.068 4.4-3.735 1.6-6 2.667-.4 3.068 2.4 2.4 2.4 3.2-.133 1.334 2.668-1.067 2.4 3.868 2.668 3.6-3.068Zm-37.88-381.192 2.8 2.8v7.069l2.267 5.335.4 8.4-1.6 5.068-1.734-4.4-4-2v5.6l-3.334-3.334-2.267-2.267-1.734-3.735-6.269-5.735 1.734 4.935-1.734 5.335h-6v3.6l-2 7.336-2.4 2.934.267 9.736 4 2.668-.67 6.277 4 6.269v6.669l1.2 8.8 3.734 3.734v4l3.066 3.068 2.934-.4 2.534-2.4 1.867-1.867h3.334l-.267 4.268-3.6 1.067v6l-6.669 1.067 1.6 7.736-.667 3.334-4.266 1.735v4.668l-1.6 4.268-4.268.267-2-2v-2.934l.934-2.934 3.735-1.2-1.734-1.734-4 1.6-4.268.667v2l-6.269 2.934-3.068 3.735-3.6.934-2.934 2.934-1.067 3.334 1.067 4.268 2.4 2.4-2.934 3.068-4.668-1.734 1.467 4.8-3.468 3.468-3.068 2.934-1.067-3.468-4.8-4.8h-2.668l-2 1.867-2.667-1.334-3.868-.133-3.334 4-3.068.133-2.534-3.735v-5.068l4.135-2.4-3.335-4.535v-3.334l-3.068-1.067-5.068-3.2-3.068-1.467-8.536-.534-4.535 5.335-3.6-.133.667-4.135-3.334-3.334-.8-2.667-2.934-2.934-5.2-2.668-1.334-3.2-3.6-4.8v-2.668l-1.867-.8.8-4.4 2-2-3.068-1.867.667-3.868 5.869-2.4v-2.139l4.4.133-.4-4.935-3.334-.934-2.267-2.934 2.8-2.668h2.8v-3.468l2.8-2v-2.534l3.468-.8 2.134 2.534 2.934-.4 1.467-3.2-.934-2.8 3.068-4.8.934-3.2 3.068-.533v-2.8l-1.467-4-3.6-2.134-3.468-3.468-.267-8.4-3.334-1.734-2.4-3.2v-3.735l2.668-.533-1.2-3.6-3.735-1.067.667-3.334 3.868-1.467v-3.868l1.867-1.867h4.268l.4-4.535h5.6l2.267-2.267-1.334-4.535 2-3.735-2.668-4.268 4.935-2.134 2.267 2.267 2.668 3.868h3.735l4.4-1.734 1.334-2.8 4.535.934 5.335-.533 4.668-6.535 7.069 1.067 7.336-8.669 5.6.533.133 2.4 1.467 1.467-1.067 3.068 5.335 2.4.667 3.334 5.335-1.067 1.734 4 3.735 1.467.133 3.068 2.8 2.8 3.2-.934h3.868l.667 2.668h2.534l1.867 2.134-1.334 4.8h2l1.467-2.4 1.467 1.467v3.068l5.069.4Zm-958.048 81.627-.8 1.2 1.467 1.734 1.733-1.734Zm188.062 2.801h-2.267l-2.4-3.6-1.467.8-4.135-4-3.334-3.468 1.2-3.6 3.334-1.067 1.2-2-2.267-1.867.267-4.8-1.467-.4-1.467-3.6-2.934-.267-2.4-3.334.8-4.535 3.2-4.4 3.868.4 1.2 1.467 1.334.533.667-2.668 4.668-1.334 3.6-3.868-2.4-2.668 3.2-2 3.6 1.467 1.067-3.068v-2.934h4.535l2.267 2.134 2.267-2.267.534-2.134 5.068-1.067-1.734-1.734-4.268-1.467v-1.6l5.068-1.467 5.2-1.334 2.667-2.668h3.334v-2.4l4.935-.133-2.668-2.668 4.268-.267 1.6 1.6-.267-4 2-2-2.134-2.668 1.334-2.134 2.4 2.4h3.068v-3.08l4.4 1.6 2.267-2.4 2.267-2.534h2.8l4.8-2.267 3.468 1.2h5.068l3.335-3.334 3.868.267 1.879 2.668h4.135l2.134 2 3.6-1.067h5.068l3.334-3.2 3.868-2.134 5.2-2h4.935l2.8 4.4v4.8l-4.268 3.868-3.868 3.6-4.935.4-6.135 2.8-5.468-2-2.532 2.673-6.269-.267h-8.131l-2.934 3.334h-6.269l-4.668 2.534 1.467 3.2-3.334 1.2-3.735-.4h-3.468l-.4 2.267-3.6-1.067v3.735l-3.735 2.534-2.934 2.267v-3.468l-2.4 2.267.534 4h-2.4l-1.734-1.734v4.935l-1.734-1.734-2.267 2.267-1.867 2h-2.667l-2 2.534-2.668 4.4h-4.268l-3.334 2.934v3.735l-3.468 1.467-1.2 4-2.8 2.8v5.068l-1.467 3.6 1.867 5.335-1.6 5.2 2.134 3.468 1.067 3.6-1.2 1.2-3.468 1.6v-2.534ZM575.26 136.435l-1.6.534 1.334 1.867v1.6h2.266v-3.2Zm-.403 14.138-1.2 1.867-4.4.8-2.8 1.6 2.134.934-.934 2.4 1.867.4h3.6l2.934-2.8 2.134-2.267-.667-3.2Zm-13.868-2.935-.934.934 1.734 1.734 3.2-1.2v-2.668h-1.867Zm-2.403 5.203-2.4-2.668-1.867 1.734-1.333 2.666v3.334l2.8.534.667 2 3.468-.8 2.265-2.268 1.734-1.6.934-2.8h-2.534Zm-10.001 11.603-1.067 1.067v2.133h2.267l.8-2.668Zm-4.671-8.537-1.067-1.067h-3.733v2.4l-2 2 1.2 1.2 4-.8 1.467 1.467 3.468-.8 1.067-2.4 2.534.934-1.334-3.068-2.267-2.267Zm18.542-27.742-.934 2 1.734 1.734 1.6-1.734Zm-3.602 4.669h-2.667v2.934l2.8 2.8v2.4l2.534-1.2-1.6-3.2Zm-16.672 8.669h-2.4l-.533.4 2 2Zm2.001 3.735-1.6 1.6 1.6 1.734 1.734-.133Zm1.468-7.336v2.267h2.267l-.4-2.534Zm3.201 5.468v1.867h2l-1.6-1.467Zm2 4.402.8.8 1.467-1.467Zm2.268-8.803v2.267l2 .267v-2.534Zm-2.935-4.668 1.067 2.134 1.067-1.067-1.067-1.067Zm-21.607 14.005-1.2 1.2 2.134 2.267h2.4v-4l-1.6-2.134Zm5.602-2.668.8 2.267h1.6v-2Zm-9.337-13.338-1.734 1.6v1.867l-1.867 2-3.468-2.534-2.8 1.6v2l-3.468-2.534-2.668.934.8 4 2.534-.8v2.667l2.668.667 2.4-2.4 3.334-1.467 2.934.934h4.135l2.934-3.068-2.8-2.8 1.867-1.867-3.2-2Zm-9.602-4.135h-3.6l-2.136-2.267-1.6 3.068 2 1.867.667 2.267 4.4-1.467 1.467 1.467 2.8-1.2 1.2 1.2v-2.534l-1.864-1.868h-1.734Zm3.334 17.606h-1.467l.534 2 2.934.133Zm.533 4.402-1.467 1.467 1.2 1.2 2.8.667-1.867-1.867Zm12.138-21.607v2.267h1.734l1.6-1.734ZM326.379 357.707l-3.868 3.868-2.8 3.468v-4.935l3.068-3.068-3.735-5.869-2.534-2.534h-4.135l-6 1.867-5.335-2.8-6.4 2.4-6.936-1.067-.267 7.736-3.734 3.068 1.6 3.868-1.867 1.867-6.4-1.867-2.4-5.2-3.868-3.868-1.334-6.536-1.334-10h-3.735l-3.735 4v3.735l-.533 4.935 2.934 2.934-1.067 5.468-5.6 4-4.935-4.8-4.535-4.668-1.2 1.467-1.6 2.534-2.4-1.467-.934.934-1.734-2.134-1.334 1.467.267 3.468-1.334 3.068-2.8 1.467-1.067 2.534-.667 5.469 4.268 4.268-1.6 4.535-3.735 1.067.4 3.068-.667 3.6-4.4 4.268-1.6.4-1.734 2-3.334 6.669.4 2.134-1.734 1.734 1.2 6.135 2.534 1.6v2.8l3.468 1.734.934 2.267 1.467.934 2 2h2.267l1.867 1.867.8 2.534 4.535.267 3.334.8 1.467 1.467 2.8.8 1.067 2.8 2.659 2.537 1.734 1.334v2.266l1.867.667h3.735v-1.467l1.867.534h2.4v2.934l1.467 1.467h1.334v1.865l2.668 1.334 1.6 1.6 2.4-2.267.667-2 2.4 1.067 1.734 2.934-1.867 1.867 2.534 1.467v1.334h1.867l2.4.934-1.067 1.067 1.467 2.134 1.334 1.467 2.4-2.134 1.734.534 1.2 2 .8.934 2.134 2.134-.8 2.4 2 1.067 2.8-.8-.133-1.6 1.867.534h3.468l.534 1.867 2.134.4 2-2.267 2.134-1.6 1.867-3.2-2.4-2.534 1.734-1.734 2.668-1.6.267-2 3.468-2.134 2.934-2.934 2-.934 2.668-2.668-1.867-2-.133-2.934-2.267 1.067-1.467-1.467h-2l-2.934.667-1.2 2.8-1.467-.534-2 2.934-1.867-2-2.134-.667-2.267-1.067-.4-3.868 2.667-1.334-.4-2.4 1.067-1.067.8-2.134 2.534-.667 3.2.667.533-2-.4-3.468-1.734-1.6.934-3.468 2.934-1.867v-3.2l.938-3.072-2.4-2.4-2.267-3.334v-2.668l-.534-2.934h2.8l3.068 2.267 2.668.934 1.867 1.867 3.735.8 3.334 1.867 3.468 3.6.667 3.334 2.534-1.334 3.068-1.067 2.267 1.467 2.934.667 2.8 2.267h2l1.334 1.334 2-2 2-3.334-1.734-1.734-.667-2.934 1.467-3.068-1.067-2.134-2.534-2.534-.934-1.867 2-2 1.6-1.6v-1.467l1.467-1.6 1.334-3.334 2.4-2.4-1.867-1.867-4.268-2-.4 1.334-3.868 1.334-2-.8-2.668-3.068-2-2-.934-3.735-3.468-3.468-2-2.534-1.2-4.668-1.734-3.735Zm875.353 141.247-1.6.4-1.2-3.334v-2.935l4.935 1.334 2.534 1.2 1.331 3.066 2.667 2.668 4.8.934 1.2 3.068 5.335 3.468h2.934l2.267 3.334 1.867 5.2 2.934 2.934 5.735 5.869 3.6.934 5.068 1.867 4.8 4.268 6.536 3.6 4.268 3.6 5.6 2.934 4.8 2.934 3.068 2.534 5.335 2.134-.8 2.534-1.867 1.867-3.6 1.2h-2.934l.8 4-.8 2.934v2.267l3.334 5.068 2.534 4 .133 6 2.534 2.534 3.868 3.868 3.334 2.134h4.935l2.934 2.934h3.334l1.734 3.6 4.268.133 2.534-2.534 4.535 2.534 2.667 3.468v2.279l-6.135-2.534-2.267 2.267h-4.935l-1.6 4 .934 3.868 3.068 3.068 2.267 5.068-3.068 2.534-2.534-3.068-3.335-3.334-5.735-5.335v-3.6l-3.868-3.868-3.6-3.6-2.534-3.334-3.068-6-3.868-3.6-4-2.267-3.868-1.2-3.335-6.936-7.069-9.87-5.735-5.735-4.8-4.8-4.268-5.735-2.668-4.4-7.336-3.334-5.735-2.534-3.468-.4-4.668-6.4v-2.934l-4.935-5.068-2.667-4.935-5.335-1.734 1.334-3.868v-2.934l4.4 1.334.8-3.868-2.534-2.534v-1.48l-2.534-2.534-3.6-1.2Zm162.588 100.432.667 4 .4 3.868 1.6.534v-3.068l1.2-2.4v-3.467Zm13.204 2.268v1.734l2.534 1.334v-2.8Zm-7.87-15.472 2.268.934.8-3.068-1.201-6.138 2.134-2.134-.4-4.535-3.2-.934-.933 5.068 1.2 1.2-1.067 3.735Zm5.736-25.475-.933.934.8 3.334 1.467-2.267Zm2.401-11.737.934-4.935-1.334-3.068.667-3.334 2.667-2.534.667 3.468-.533 3.734.667 4.135-1.334 3.2Zm2.401-42.814v7.6h2.8l-.8-3.2v-4.667Z" fill="#ddd" stroke="#fff"/><g fill="#ddd" stroke="#fff"><path d="m1272.955 368.777 2.934 5.335 6 4 6.269 3.334 9.6 2.934 4.4.934 4 2.668 2.4 3.334 8.4 4.4 7.336 3.068 7.736 3.6 4 4h4.4l3.2 3.2 4.135 2.134h6.4l2.4 3.334v-4.4l-1.067-6-2.267-9.336-.934-7.069-4.268-4-5.735-5.735-3.735-1.6-2.267-8 1.734-4v-4l4.935-.667v-2.668l-6.4-1.6-1.867-1.867-3.868-1.467-4.4-6.936-1.6-8.936 2.267-4.935 3.735-2.4 2.667-1.734-1.6-4-4.4-3.6-7.6.934-3.2-3.2-4.135-1.067-4.668-7.736-1.334-5.335 4.4-1.334 1.734-4.268-4.4-4.4h-3.735l-2.267 2.267-5.735-1.334-5.735-4-.8-4.935-5.735-5.735-1.6 3.334-2.134 2.134v1.867l1.734 3.735h-6.269l-3.734-3.735-6.135-3.2-.667-4.935-.934-6.269-4.268-4.268-3.068-3.068-2.667-2.668-3.334-5.6 2.4-2.4v-5.735h2.667l4.135-4.135-4.135-1.867v-4.144l-2.4-6.4 2.668-.267 3.068 3.068 4.268 2v-3.6l-3.725-5.741v-3.334l1.734-6.269-2.4-2.4 4.668-6.669 2.934-6.669 5.6-1.734 4 2 3.735-3.334-2.4-2.4-3.734-4.268-2.267-8.936v-6.4l-4.268-3.735-2.267-6.936-1.067-7.069-2.267-5.335-1.337-6.272-2.4 3.468-3.868.267-2.8-2.8-3.336 1.065-.934 5.735-1.6 5.735-3.335 5.2 2 2.934-2.267 6.8-2.267 4.935-3.735 2.267-2.534-2.534-3.334 1.067-3.068 3.068-3.868.667-3.468 4.535-2.668-2.668-1.334-3.735-1.867-3.468-1.2-4.535-2.8-.8-3.868 2.668-2.267 2.267-3.2-1.334-5.335.8 1.067 3.334-1.867 2.668-2.4-.667-5.335 1.6v3.868l-2.4 1.734-1.467 4.668-3.735-.267-4.4 3.334 1.6 1.6-2.267 2.267-3.6 2-2 4v3.868l1.6 1.867 5.6.533.133 2.4 1.467 1.467-1.067 3.068 5.335 2.4.667 3.334 5.335-1.067 1.734 4 3.735 1.467.133 3.068 2.8 2.8 3.2-.934h3.868l.667 2.668h2.534l1.867 2.134-1.334 4.8h2l1.467-2.4 1.467 1.467v3.068l4.668.533 2.134-3.068 2 .267.4-2.934h-4.4l-3.734-3.735-3.868-3.868-2.668-2.4 1.334-3.6v-4.668l4.935-2.668 3.468-3.468 1.467 1.467-4.268 4v5.068l4.668 2.934 3.068 4 2.534 2.534 2.8 1.067h2.934l2.934 5.6 2.668 2.668v6.8l-1.6 5.335.267 4.4 2.668 2.267 2.668 8.269 2.267 5.6 2 6.936 1.734 7.336 4.268 5.6 2.668 8.269 1.067 7.069 2.268 6.669-1.734 1.734-2 2 2.134 3.735-1.6 3.334-1.867 1.867v1.9l4.135.934 3.735 5.335.667 5.068 3.066 3.063v4.668l4.4 4.668 6.8 6.135Z"/><path d="M1268.288 257.808v4.266l-.4 3.868 2.4 1.467 1.467 2 .133 3.334 3.2 1.2-.8-3.468-1.334-2.668 1.334-4.4v-5.468l-3.734-1.467Zm74.825 20.139-2.668 1.067 1.334 2.8h9.2l2.934-2.8-3.735-1.2-3.6 1.467Zm13.337 141.781-1.2 3.468-1.867 1.867 2.134 2.134 1.2 2.534-.267 3.468-.267 4.4 2 2 2.267-1.2v-4.671l2-2-1.6-3.868-2.668-2.667.133-3.468Zm8.27 30.009v2.934l1.867.934 1.334-1.734Zm-5.202-181.793-2.534 1.734 1.334 1.334 1.867-1.734 1.734-1.867Z"/></g><path d="M1260.953 148.305v-8l-1.6-7.069-3.734-5.735 1.734-1.734-5.2-3.468 1.334-2h4.668l2.934-6.269 4.4-1.734v-4.668l-3.2-3.2-1.734-3.868-3.6 2.668-2.4-2-2.935.4-2.4 2.4h-3.868l-1.067 2.134h-4v-3.2l-4.935.267-2.668.4-3.334-.267-1.334 2.267-2.8 2.8-4.8.133-2.668 2v4.268l-2.934 1.067-2.134-2.267 3.6-4.268h-2.4l-3.868 1.6 1.6-3.6 4.668-2h3.334l3.6-5.735-.934-5.068-1.734-6.4-3.735-3.735-3.468-3.468-2 2-.267-4.268h-3.334l-4.935 1.334-3.077-3.074v-3.067l-3.868-.667 1.334-1.334 2-.934-1.734-1.734.4-2.134 2.267 1.334 2.4 2h4.268l2.934-2.267 2.934 2.267 3.735-3.735v-5.734l-1.734-3.334 3.735-5.6h4.268l3.334 1.334 4.668-1.6 2.4-5.335 4.668-5.068 5.068-.4 2-5.735-3.735-1.067V32.4h4.668l-1.6-3.6v-2.935l-2.4 3.068-2.4.667-2.934-4.4-4.135-4.135v2.4l-5.2-2-2.4 2.8-4-.667 5.068-3.334v-7.337l-4.668 1.334 2.4-5.068-2.134-2.267-2.934-2.4V.79l-5.068 2.4-4 5.6h-1.6l-5.335 2-3.07 3.071-2.267 3.068-.4 4-2.4-.267v2l3.6.934-4.268 2.934-1.334 4 4 1.067 6.269.4 5.335-1.067v2.668l-5.335 2.934-3.068 3.068-4.532-3.465-5.068 1.6-3.6-3.6-3.068 1.734-4.935 2.267-4 4.268-7.6 2.267-4 5.735-5.6 2.267-4.535 4.535-4.4 4.4-4.8 2.668-6.669 2.934-3.468 3.468-7.6 7.6-6.8 6.535-1.734 6.4-3.734 5.6-1.334 4 1.334 3.735h-3.068l-3.6 2-.4 4.668-4 2-1.067 4.268v2.4h4.4l1.334 3.068 5.6-.934 7.6 3.334 2.4.4 1.334 3.6-1.067 3.6-4.4 1.067-4.935 2.267-3.6 1.334h-5.2l-3.334-3.334 3.2-3.2-4.268-4.268-2.4 2.4-2.4 4.4 3.068 4.4-.934 2.668 2.267 2.267-1.334 5.335-5.6 4v4.4l-2.934 2.934h-3.351l-2 3.735v7.336l1.734 2.534 5.335 1.867 4.4.533 1.067 2.8 4 1.467 3.468 5.869-4.535 3.468-2.134 5.335v4.4l-3.068 2.134v4.535l-2.667 4.155 1.867 4.4 3.468 2v5.2l4.4.667 4.135 1.867 4.535-1.467h3.6l2.668 2.668 2.4 4.668h2.534l4.935-2.134 2.267 2.267 2.667 3.868h3.735l4.4-1.734 1.334-2.8 4.535.934 5.335-.533 4.668-6.535 7.069 1.067 3.068-3.068 4.268-5.468-1.6-1.867v-3.868l2-4 3.6-2 2.268-2.267-1.6-1.6 1.067-1.067 3.334-2.267 3.735.267.934-4.135 2.934-2.267v-3.868l5.335-1.6 2.4.667 1.867-2.668-1.067-3.334 5.335-.8 3.2 1.334 2.267-2.267 3.868-2.668 2.8.8 1.2 4.535 1.867 3.468 1.334 3.735 2.668 2.668 3.468-4.535 3.868-.667 3.068-3.068 3.334-1.067 2.534 2.534 3.735-2.267 2.267-4.935 2.268-6.8-2-2.934 3.334-5.2 1.6-5.735.934-5.735 3.334-1.067 2.8 2.8 3.868-.267 2.667-3.334ZM1104.898 36.669l-1.73-.667-1.6 1.6-3.334 1.734-2.8 2.8.264 4.666-1.2 1.2.667 3.868 2.134 3.2 2.4 5.335 3.468.667 2.4-2.267 1.734-3.334-1.867-2.134 2.934-4.268-.533-4.668v-5.465ZM2.272 341.835l3.468.8 3.068-.8 1.064-2.267 2.668.533 2.534 2.4.133 3.468 2 .667.4 2.668 3.2.533.667-2.534-1.73-1.735 1.6-1.467.934.934 2.934 2.534v3.868l-.4 3.334 1.867 2.8 1.734 1.2.534 4.4-1.467 3.2-7.469 3.735-11.2-13.338Zm148.314 28.541-2-1.467-1.6.267.533-2.134.534-1.867v-1.2l.667-.8 1.867 4.535 2.668-2.667 1.467-1.734.667.8v1.6l-1.067 1.334v1.733l-2 .934h-.936ZM92.568 470.409l-2.134-3.332 2.934-.667 3.334-3.2h2.932l2.267 2.267.667 2.668 3.2.267 1.067-1.067 1.867.534 2.934 2.267 2.668-1.734h3.068l4.135-.8 3.2.8 1.6 3.334 2 2h3.735l1.334 2.668 1.334 2.4-1.467 2.267-1.2 2.4v3.334l-3.334 2.267-3.334-2.134-1.067 1.067v2.534l-2.934.533-2.668-2.534-2.134-1.2-3.868 1.067-1.867 1.867-2-.8-3.068 4.268-4.935-2h-3.468l-3.334-1.067-.4-3.2-2.134-2.134v-2.668l1.6-1.734v-3.2l.934-3.334-1.734-1.734Zm79.627-43.345 1.6-1.6.667-3.2-2.934-4.668-3.2-1.067.934-2.134 1.467-2.668-1.2-3.334-.533-3.334-1.734-1.734-2.534-.934 1.334-2.668v-2.668l-2.8-1.334-.4-2.668-3.2-.133-1.867 1.867-2.4-3.068.667-5.735-2-.4-2.267-2.267-2.134 1.734-2.267.667-3.334-1.467-3.6-.4h-5.068l-1.6-3.068-1.867.934-1.6 1.6-2.934-.267-3.735.267-1.6 1.734v2.8l-1.734 1.6.8 1.867 2.267 1.734-.934 3.2-3.068 1.334-2.134 2.134-1.867 1.067v3.068l-2 1.067-1.867 1.734 1.867 1.867 1.334 2.934 2 2h4l1.867 2 3.334-.267 2.668 1.6h4.668l2.534 2.534 3.068.267 1.867-1.867h3.735l2.4-2.267h2.934l2.534 1.2 1.734 1.734.8 3.2h3.2l2.134 2.668h2.934l.534-1.867 1.867 1.867 2.934 1.467Z" fill="#ddd" stroke="#fff"/><path d="M140.451 451.071v2.934l1.2.133.4 2.4h3.334l1.867 1.334 2.934 1.6h3.468l2.267 2.267h3.735l3.068 1.734 2.934.8 2.534-2.4 4.268-2.668-1.6-3.6v-2.134l2.4-2.4-.934-4 1.334-2.934h3.2l1.467-4.535 4.268-1.867v-4.4l1.2-3.734-3.2-1.067-3.6.667-2.534-1.067-2.134-1.067-3.2-1.467-3.6-1.467-1.867-1.867-.533 1.867h-2.934l-2.134-2.534h-3.2l-.8-3.2-1.734-1.734-2.4-1.2h-2.934l-2.4 2.4h-3.735l-1.867 1.867-3.068-.4-2.534-2.534h-4.8l-2.534-1.6-3.334.267-2-2h-3.868l-2-2-1.347-2.941-3.468 2.934-.4 2.8-2 2-.4 4.668-1.2 2.668-1.334 2.4h-3.068l-1.33 3.737.4 1.334 3.068 1.734.8 4.535 2.8 2.8 3.068 1.734 2.134 2.134 4.4 1.067 3.468-1.067 3.735 1.067v2.4l1.734 1.734 1.734 3.334 2.4 1.867 1.334 2.534 1.467-1.867h2.534l1.734-2.534 3.334-1.467Z" fill="#ddd" stroke="#fff"/><path d="m161.258 488.417-1.067-2.134v-2.934l-2.134-.934-1.067-2.934 2.534-1.867-.133-2.934 1.867-1.867.8-2.8 2.534-1.2-.667-2.668 1.6-1.867-2.934-.8-3.068-1.734h-3.735l-2.267-2.267h-3.468l-2.934-1.6-1.867-1.334h-3.334l-.4-2.4-1.2-.133v-2.939l-3.468 1.334-1.734 2.534h-2.538l-1.467 1.867-1.067 3.735-4 1.734-3.068 3.068-1.6 2.4 3.068.934 1.467 2.8 2.267 2.4h3.6l1.334 2.668 1.467 2.4-2.8 4.668v3.334l2 3.2 2.8.533v2.4l-.934 2.668.8 2.668-1.067 3.735.4 3.068 3.334-.534.534-2.4 2.668-.533.934.934 4-.133 1.2-1.2 3.468.667 2.134.8 2.267-.533.934-.934 2.534.267h2.668l-.133-3.2 1.467-.667.8-2.267.267-4.268-1.734-1.734-1.867-1.067Zm-10.937-11.2-1.467 1.867.533 2.4h-3.068l-.8-.8-.934-.934-1.6 1.6-2.267.133.934-2.4v-4.268l1.6.267 1.467-2-.533-1.2 1.467-1.2 2-.533-.133 1.467.8 1.467.133.267 2.134.934 1.467 1.467-1.734 1.467Z" fill="#ddd" stroke="#fff"/><path d="m148.317 473.211-.133-.4-.667-1.334v-1.466l-2 .534-1.334 1.2.4 1.2-1.334 2-1.6-.133v4.135l-.934 2.534 2.267-.133 1.6-1.734.934.934.8.934h3.068l-.534-2.4 1.467-1.871 1.6-1.6-1.467-1.467Z" fill="#ddd" stroke="#fff"/><g fill="#ddd" stroke="#fff"><path d="m460.955 346.637-3.334 1.6-2.4.8.667 5.335.4 2.8 2.134.533.934 4.268 4.135.4 1.467-3.468-2-3.334.133-3.868Zm-71.489-17.472-4.4 1.2-2.67 3.335-2 2.668 1.467 3.868 3.2 1.2 3.068 1.2 2.8-2 3.465.529 1.734-4.135-2.8-3.735-.267-2.934Z"/><path d="m489.632 383.049-1.867 2.668-2.134 2.134-1.334 1.334 2.134 2 .4 1.734 1.734.534v7.6h-2.134l-2.534-1.467h-2.534l-4.4 3.735-3.868.267-1.734 4.268-5.869-1.067-1.6 2.534-2.534 2.534-2.534 1.467-4.935 1.734-4.268 1.067-5.068-2.534-2.668.534-3.068-2.534-5.869-2.4-6-3.868-4.4-1.734-7.2-2.8-3.6-3.6-4.4-.4-6.936-4.4-3.468-3.468-5.335-2.4-5.335-4.535-4.935.533-3.735 2.4-23.074.133-1.867-1.867-4.268-2-.4 1.334-3.735 1.334-2.134-.8-2.668-3.068-2-2-.934-3.735-3.468-3.468-2-2.534-1.2-4.668-1.734-3.735-1.734-2.267 5.335-1.067 4.4-6.4v-5.6l1.734-3.735 5.735-2.934v-3.6l5.6-3.334v-5.6l-.934-5.335h3.735l1.2 2.8 5.068 5.068 3.735 5.735v7.736l-1.334 4-2 2-3.334-3.334-4.668-1.067-7.069 2.4v5.735l1.734 5.335v4.4l5.068 1.334 4.935 2.267 5.6-2.668v-4l5.735-1.334 5.6 2.668-.934-3.6 8.67 1.6 4.668-.934 8.4 1.067h4.935l2.4 4.4h2.267v-4l7.069-2.267h3.74l1.6 5.735h-4l-1.334 4-3.334 1.067 5.068 4.668h3.6l6.669-2.934 6.4 1.2 6.936 6.936 2.4-2.4h4.668l5.869-1.867 2.4 2.4-.667 3.068-3.6 2.4v3.735l4.268 3.6.4-4.135 1.867-1.867 4.4 1.067v-2.934l4.268-.667.934-5.335-.667-6.4 4-2 3.468-1.067 4.135 4.135 1.734-1.734 4.535 5.735 5.2 5.2 4.268 4.268.667 1.867Z"/></g><g fill="#ddd" stroke="#fff"><path d="m586.598 342.235-2.267 2.267-2.4 2 2.267 1.6 1.734-1.6h2.934l2.534-2.4-2.4-2.534Zm-7.336-22.407-1.734 1.6 1.2 1.867 2.4-1.6 3.068.8-.8-1.867Zm-9.203 8.136-1.067 2.534 1.6 1.466 1.867-2.267Zm-21.607-13.204-2.267 1.6.934 1.867-1.734 2.267.4 1.334 3.734 1.067 3.334-1.6 2 .133v-2l-3.2-.8 1.6-1.867-1.734-2.534-2.267.8Z"/><path d="m483.497 406.923.4-2.4 1.734-.934 1.067-2.4h2.134v-7.6l-1.734-.534-.4-1.734-2.134-2 3.468-3.468 1.867-2.668 1.734 3.6 5.2 5.2 3.6 5.6 3.735 5.068v4.4l3.068 4.935 4.4-2.668v-4.668l5.068-4.668-3.6-1.067-2.4-5.735.934-6.269-4.268-2.934-2.4-4.8 2.134-2.134 4.4-2.267v-3.6l1.067-5.335 2-2.668v-3.334l-2.934-.934 1.6-4.4 2.4-3.068 4.4-1.6 4.8-2.4 1.734-1.734 3.735-3.734 2.934-6.4 2.276-5.342 2.4-5.335 4.268-2.267 2.667 3.735h5.335l2.668 2.668h4.668l2 7.6-2.267 2.267-.8 8.136-6.4 6.4-1.734 5.735 3.735 3.334-1.334 7.6-1.067 6-4.4 6.669-1.6 9.6-2.4 8.4-1.734 4.268 1.729 5.89 3.868 3.868-.667 3.6-4.935 3.732-.934 8.269-4.935 1.334-5.735 5.735-3.334 4.935-3.068 1.734-5.6-1.067-3.334 2.267-3.735-2.4-2.4-2.4-3.334-1.067v4.268l3.334 5.068 3.334 1.6 4.4 3.068 3.735-.267 2.668 3.735h4l.8-3.868 2.4-2.4h2.938l1.334-1.334 5.6-1.6 4.4-2.4v-4.668l2-2 3.468-3.468 2.8-2.8 1.334-5.335-1.067-4.668-.4-4.268 3.068-3.068 3.068-3.068h4.668l5.068-.667 1.467 4.268 2.134 2.134 2.668 6.936-3.6 3.6.267 5.335v3.327l4.4 4.4 5.068 1.067v-3.068l-5.068-1.467-1.867-1.867v-2.665l-.4-4 3.6-1.067 1.334-2.934-1.334-4.268 1.6-3.6-2.267-4.4-2.934-2.668-1.734-1.734-5.469-1.867-3.068-3.068-2.534 2.534-3.334 1.6-1.734-2.4h-4l-.667-4.268 2.668-2.668-.667-7.069 3.068-4.935 2-5.735 4.4-4.4-1.6-4.935-1.334-4.268.534-4.535-3.2-3.2 3.6-3.6 5.6-5.6h4.668l2.668-4.268 1.734-4.668-1.6-3.734 1.6-3.334h3.6l-1.067 4.668v6.4l-.934 5.735-4 4v9.6l4.668 3.6 2.668 2.267 3.468-2.134 3.468 3.468 3.735 3.6v-2.665l-1.467-3.468-2.534-2.534-4-2v-1.734l-3.335-3.334-1.6-4.935 4.668-3.068 2.267 2.267 3.6 3.6 2.668-2.4-.934-2.934-.534-2.534 2.534-2.534.267 2.668h2.134l.934 2.4 1.734 1.734 3.068.8 3.068 1.734.8 2.934-2.134 2.134.4 2.4-4.268.667-1.867 1.867-1.2 1.2 1.334 2.934 1.067-1.067 1.334 2.668 4.8 2.668-.4 5.335v7.736h-4.4l-1.734 2.668-3.334 3.334-4 3.068.267 4.135 2 2 .667 2.4 2.8 2.8 4.268.667.534 2.934 1.467 1.467 2.667-2.4 1.334 1.334 2.668-2.534-.133 4.4 3.468.667v3.468l2.134 5.068-1.2 3.2h-1.734l1.734 3.334-1.734 3.735-2.4 2.4-.8 2.668-3.068-.667-.133 3.6 2.134 2.134.667 4-1.867 3.334 2 2v3.068l4.935 2.934 1.867 3.868-3.068 2.8v2.267l1.6 2.668v4l-2 1.6 2.4 4.4h2.668l2.667 2.668 2 4 .4 5.068-2.267 2.267 1.067 4.668 5.068 1.067 2.534 2.534 2.534-2.534.934 5.335-.934 4.668 1.6 3.6-3.068 3.068-3.2 4.135-2.267 4.283 3.334 4.668v5.6l-3.2 3.2-.4 5.068-1.867 1.867-5.2 5.2-4.668-5.735h-3.068l-3.334 1.067-3.334-5.6-6.4-2-2.134 2.134-4.535-5.869-1.734-4.668-4.668 3.068-4 2.267-1.734 3.068h-16.012l-3.6-3.6-4.668-2.4 1.6-4.268-6-2.4-2.138 2.133-3.6-3.6-5.468-1.467-3.734.934-4.4-4.668h-3.735l-3.334-5.335h-3.734l-7.736.934-1.6-4.4 1.067-4.4-5.068-5.068v-3.868l-1.2-6-5.335-5.335h-6l-2.4 2.4-3.334-3.334-3.068 3.068-6-1.067-3.334-3.735 3.868-3.868-5.068-4.4-5.068-2.668-4.668 2-4.668-2-6 1.334-4.4-4.4-3.734-3.734-2.149-2.143 4.135-4.135 1.734-5.468-.934-6 .4-7.336 5.735.267v-4.935l7.069-4 7.069-1.6h7.6l1.6-4.935h4.268l4-4 5.335-2.667-3.468-3.468 4.135-1.734v-2.934l-4.4-2.267.4-1.467Z"/></g><g fill="#ddd" stroke="#fff"><path d="m1148.248 518.826-1.867 2.134v5.6l3.2-1.467 1.735 1.733 2-1.867.8-3.868-2.135-3.065Z"/><path d="m1081.026 553.505-2.534-5.869v-4.4l-2.934-2.934 2.534-2.534.8-5.735-6.139-2.67h-4.935l-.534-2.934 3.468-.667-1.867-3.6.934-6.8-4.135-.667-4.135-4.268 3.6-.8.4-5.335-1.6-1.6-.934-2.8 1.334-3.468-2.8-2.8 2.4-3.2-2-2v-4.8l4.535-2.4 3.068-1.734 3.6.4 2.934-2.934 4-1.6.534-3.868-2.534-2.534 1.467-3.735 5.2-.934 6.8-6.8-.267-7.6 4.8-1.6v-2.534l-4.8-4.8-1.067-3.334-5.335-5.335-3.468-.8-.667-4.268.8-5.2-2.668-2.668 4.135-5.335v-4.668l.267-5.869-2.134-2.134-1.067-4.135-2-2-.133-5.2 3.868-.8 3.335.8 4.268 2.4 4.268-2.267 3.468-1.067 3.468-3.468 2.534-4.4 3.335.133 2-1.2 1.467 1.467 1.867-.667v-3.735l-.267-6.135 3.6.133 4.535-5.335 8.536.533 8 4.668 3.068 1.067v3.311l3.334 4.535-4.135 2.4v5.068l2.534 3.735 3.068-.133 3.334-4 3.868.133 2.668 1.334 2-1.867h2.683l4.8 4.8 1.067 3.468h-2.667l-2.668 2.4 1.734 2.934 1.334 1.334-3.734 2.4h-5.066l-5.068 4.935-3.2 3.2-3.6 6-3.735 3.735-3.735 7.6-.667 7.336 3.6 7.069-3.334 3.334-1.067 7.069 2 5.068 3.068 3.068-2.668 4.4v14l-1.334 5.6v7.6l2.267 2.4v11.337l-2 7.6v6.269l-3.335 5.6v5.6l-1.734 4.935 2 4.535h3.334l2.668-2.668h3.6l2.934-2.934 3.2-3.2 2.267 2.267 2.668 1.334v2.934l2.134 3.868 2.668 2.668 2.4-2.4v-3.735l-3.068-1.334v-3.334l2.4-2.668v2.267l2.667 2 1.334-.4 1.334 1.334v6.936l4.4-1.734v-2.267l2.4-3.334 1.6-1.334 2.4 1.734.534-3.734-2.134-2.134-2-3.735-2.4-4.4 4-2.267 2.4-2.4 4.935-1.067h5.735l4.8.534 2.134 2.134 6.269-.934 4.268-1.334 2.8 2.8-2.134 2.134-1.6 1.6-1.334 2.4h7.736l.934 2.934 3.334 3.334 4.135-.534 2.134 2.134 2.267 4.268.667 8.4 2.934 8.936 4.535 6.536 5.735 5.735 2.268 2.267 1.067 3.735 4.4 4.4 3.068 5.335 1.067 3.068 4.135 6.4 3.468 3.468v9.336l-1.334 8 2.4 8-3.6 3.068-3.735-2.8 1.067-2.267-1.334-2.8-3.2.133-2.4-2.4-3.068-2.4-2.667.4-1.6 6.135-4.4 3.735.8 3.068 4.135.534 1.067 3.2 3.734-.4 1.467-2.8 1.734.534 1.734 4.268-.533 4.4-1.334 3.2-5.335 1.867-.8 3.735 2.667.8v6.269l-3.468 4.4-4.535.667-.4 1.467-4.535-.667-1.067 1.467-3.068.133-.934-.934-3.062-.892-3.868 5.335-.534 4.268 2.4 2.4v1.867l-4.4.534-1.067-4.935-5.335-5.068 3.334-3.334v-4.935l-2.8-2.8-3.2-3.2-.934-2.934.534-2.534-1.467-1.467.4-3.6-3.868 1.467-4.535.534-2.267 4.135-6.135 1.334-2.8 3.868-4.4-5.2-3.6-1.734-3.334 1.467-1.734.934-3.734-.667-3.6.534.4 4.668-2 2-2.134 3.868-2.534-.667-.133-5.335-2.534-1.867-1.867-.533-.4-3.2-4.135-3.068-.8-3.468-4.8-.533-1.867 1.867-2.534-3.868h-2.534l-2.4-2.4-.934-8.936 2.134-3.868-2.668-4 3.068-3.6.133-3.068 3.735-3.468.534-6.4 4-4.535-.133-2.934-4.535-4.535 1.734-2.4 3.868.133 7.2-2.668 1.6-5.468-4.135-2.8-1.2-6.8-3.876-3.886-4.135.4-2.4 4.135-2.267 2.267-4.268.8-1.2 3.468.934 4.135-1.467 1.467-4.268 1.6-2.134 2.934-2 3.068-2.8-.133-2.668 2.4-6.135-8.4-3.468 1.2-1.867 1.734-5.468-.8-2.8-3.468 1.6-3.734 2.668-1.467v-3.068l-2.4-4 1.2-3.068 1.467.133v-6.8l2.8-3.868-.133-3.068 1.467-3.868-4-2.267-4 .8-3.068 3.068-3.6.533-2.534 3.2-2.8 1.467-1.334-.534Z"/></g><path d="m57.09 641-1.734-2.267-2.4-1.067-2.4-3.735-1.867-1.867 3.068-2.4-.667-3.468 2.4-.8-1.734-1.734-6-6.4-2.534 1.467-2.4-2.4.267-2.267.8-2.934-3.068-1.334-2 2-2.668-2.4-2.4-1.734-2.668-.4-.934 2.934 1.734 3.335-.667 5.6-3.338-1.073h-2.668l-5.068.267-3.735 1.6-1.6 3.334-3.334-1.067-3.6-4.4-2.668.4-2.4 2.4 1.067 4.4-1.334 4 1.734 3.6 2.668 2.4-.4 6.669 2.267 3.334 1.729 3.743.934 7.6-.667 10.27 1.734 5.335 2.934-.4 2.267 3.068 1.734 2.267 2.4.4 2.668-2.667 3.2-.534 2.267-2.267h2.267l1.2 2.668 1.867 2.8h4.268l3.334-4.135 1.2-2.4-.8-3.2 2.4-.667 3.735-2.8-2.134-2.134 1.867-2.934-1.334-2.668-1.734-1.467 1.867-2.668v-2.668l1.734-1.867 1.734.533 1.2 1.867 3.068-.4 2-2-.4-4.535 1.734-2.134Zm-23.074 12.271v4.935l-1.2 2.4-.934-2.934-2.134.934-2 2-2.4 3.334-2.4 2.4-1.6 1.334v1.734l-2.4.4-1.067 1.067-1.2-2.4-3.468-4.135 2-2 1.734.8h4.8l.534-1.734-.8-2.134v-3.735h2.134l1.334-2.534 2.4.133 1.467-1.467-1.334-3.068-2.4-1.467-.667.8h-2.27l-1.6-1.734-1.867-1.867-1.2-1.2-1.067-2v-2.134l1.334-.534 1.6 1.6 1.067 1.067 1.334 2.134 2.8.8 1.2-.533 2.8.934.667 2.4 2 1.067 1.334 1.334 1.467 1.067v2.934Z" fill="#ddd" stroke="#fff"/><path d="m62.691 705.155.934-1.734-2.534-1.734-1.6-1.734-3.068.667-4.135-4-.8-2.668-3.468-.667-3.468-1.2 1.067-2.4-.934-2.267-1.867-1.734 1.2-2h3.868l-1.2-1.867-.667-2.8-2.4-1.6v-3.468l-2.668-.934 1.2-2.4-.8-3.2 2.267-.667 3.735-2.8-2.267-2.134 1.867-2.934-1.334-2.668-1.6-1.467 1.734-2.668v-2.668l1.734-1.867 1.734.534 1.2 1.867 3.068-.4 1.867-2h2.534l1.6 1.734 2.534 1.334.934 2.8h2.267l1.867-.667.934 2.934 1.867 1.867 3.868-.8 2.534 1.067.4 3.334 2.134 2.4.667 2.8 2.134 2.134 1.467 4-1.6 2.934 1.734 3.068 2.267 2.267 1.734 2.4v2.668l2.4 2.267.534 3.468 1.867 2.8v5.068l-3.468 2.267-3.334 1.067-2.934-.934-1.734 1.6 1.067 1.867-1.6 1.467h-2.667v1.867l2.267 1.2-1.334 3.468h-3.6l-1.734-1.6v-1.6l-1.6.133-1.6 2.267-1.867.267-.934-3.734Z" fill="#ddd" stroke="#fff"/><path d="m81.764 717.026 2.267 3.068 4.535.4.4 5.068-2.267.8-4.135 2.267-3.868 4.668-1.334 5.2-3.735-2.134-2.27 1.736-3.735-.267-2.4 1.867-3.868.534 1.334-3.735-3.334-3.6 3.468-2.4 2.534-4.268 2.134-4.535.934-3.468-3.6-2.668-1.467-2.935 4.535.133 2.134-.8 1.334-1.734 1.6-.133v1.6l1.734 1.6h3.6Zm-47.748-20.142 2.668-1.067 2.668-2.668 2.134.267 3.068-1.334 3.468 1.2 3.468.667.8 2.668 4.135 4 3.068-.667 1.6 1.734 2.534 1.734-.934 1.734-1.734 1.467v2.667l-1.6 1.6-4 .267-1.334 1.334-2-1.867h-3.071l-2 1.2-1.867-.4-3.071 1.071-3.068-2.934.934-4.4-3.868-3.2Zm102.166-118.437-.267 3.868 1.334 5.335 5.068.533 2.934 1.6v2.668l4.4-.133 5.335 5.068.667 6.135-4.135 3.868 2.934 2.8 1.734-1.6 3.068 1.2.934 4.4 2.134 2.134h3.2l.534 3.334 2.8 2.668.133 4.535-1.6 3.6-2.8 2h-4.4l-3.468 3.468-2.8 2.934v4l-3.868 1.6-4-.267-2.8 2.934-1.6-4.668-2.534-2.534-3.2 2-4.535-.133-2.267-2.267-5.335 1.334-1.467 4-4-.934-2.4-2.267v-2.8l-2.134-.8-1.6 4.4-2.267.934-2.267-2.267-2.668 1.067-2.4-2.4-4 3.6-4.8-4.535-1.067-4 1.334-3.735v-4l-4.935-3.6 2.8-2.8v-2.8l3.735-1.467 2.934 2.934 4.668-.8 3.068-6-2-8 5.335-5.2 1.734-4.8-3.068-4.8-.267-2.934 5.2-5.2 1.6-5.335h6.4l3.068-2.8 3.2.667.8 2.4 3.468 1.867Z" fill="#ddd" stroke="#fff"/><path d="M98.571 648.203v-4.8l-4.8-4.535-1.067-4 1.334-3.735v-4l-4.935-3.6 2.8-2.8v-2.8l3.735-1.467 2.934 2.934 4.668-.8 3.068-6-2-8 5.335-5.2 1.734-4.8-3.068-4.8-.267-2.934h-5.735l-2 2h-3.068l-1.6-2.134h-3.871v-2.8l-1.734-1.734-1.734 2.267-1.6 3.734-8.136 1.067.133 3.6-3.068-.4-3.068 3.068.8 4.935-3.334 2-4.8 4.8-5.335-5.735-3.6-3.735-3.735 1.467-4.268-1.734-4.935 2.267-3.336 3.456 2.668.934 2.534 2.4 3.735.934 2.668 2-.934 4-3.735-1.6-5.068-.667-.8 2.934-.267 2.267 2.4 2.4 2.534-1.6 7.736 8.136-2.4.8.667 3.468-3.068 2.4 1.867 1.734 2.4 3.868 2.4 1.067 1.734 2.267-2 2.134.267 4.4h2.534l1.6 1.734 2.8-2.267 2.134 1.6h4.135l1.6-1.6v-2.267h2.534l1.2 3.2v2.934l2.134 2.134 2.668.667.8 3.868.8 2.8 1.734 1.734 2.4.934 1.067-1.067 2.668.667 4.668-4.935H97.9l4.535-3.334 2.267-4.4v-3.334l-3.334 1.734Zm44.68-1.067-1.6-4.668-2.534-2.534-3.2 2.134-4.535-.133-2.267-2.267-5.2 1.334-1.6 4 1.334 4.4 2.534 1.734-1.334 7.069.4 4.268 2.134 2.8 4.935.133-1.2 5.468-2.534 1.467-1.6 5.468 2.267 2.268-1.467 3.6-4.668-.4-.4 2.8h-1.6l-.4-1.734-2.534-1.067-1.734 1.734 1.6 2.134v2.667l1.467 1.467v2.134l-7.2 5.068.667 1.734 3.068.133 2.4 1.734 4 .667 1.6 1.6 3.334.934 1.734 1.734 4.8-.4h7.469l3.735-.4 2.267-2.267-2.8-2.8-1.867-3.868-.4-4 3.334.4 2.267 2.4 2.4-2.4v-6.135l-1.2-7.6 1.067-5.735-2.668-2.667-4.268-4-2.934-1.734 2.934-2.934 1.334-5.735-3.2-3.2-1.467-4.4 3.334-2.4ZM84.564 499.084h-2.4l-2.4 2.4 1.2 1.867 2.4.934 1.6 1.334v3.6l2.534.667.666 2.138 2.4 1.067.667 4.935 2.4 4.135.8 5.068 2.4.533 1.867 1.734 2.668-2.134h2.8l2-2-1.2-2.267 4.4-2.668 1.334-3.068 3.468-1.2-1.467-4.935 1.467-1.467-4-2.668-2.8-5.735-1.6-7.6-4.935-2h-3.468l-3.334-1.067-1.334 1.334-.667 2.8-1.2 1.2-1.866-1.737h-2.4l-2.134.8.667 2Z" fill="#ddd" stroke="#fff"/><path d="m129.381 516.159-3.2.267-1.067 2h-3.334l-1.2 2.534h-2.536l-2.267-3.2-1.6-1.6-3.473 1.199-1.334 3.068-4.4 2.668 1.2 2.267-2 2h-2.8l-2.668 2.134v3.735l2.8.534 3.068 2 3.868.533 1.734 3.468 4 1.334-.8 4 2.668 2.667 3.468.4 3.468 4.668 2.534-2.134h2.534l.667-3.6-2.4-2.4.533-3.2-1.334-1.734.8-2.4 3.068-.934 3.6-3.735 4.535-3.2-.8-5.869-3.068-3.068-2.8 1.867-1.467-2.267 1.2-2.267Z" fill="#ddd" stroke="#fff"/><path d="m135.916 505.222-1.734 3.068v2.668l-2.4 1.734-2.4 3.468-3.2.267-1.067 2h-3.334l-1.2 2.534h-2.542l-2.267-3.2-1.6-1.6-1.6-4.935 1.6-2.134-4-2.134-2.933-5.742-1.6-7.736 3.068-4.268 2 .8 1.867-1.867 3.735-1.067 2.267 1.2 2.534 2.534 2.934-.534v-2.534l1.2-1.2 3.2 2.134 3.334-2.267 2 3.2 2.8.533v2.4l-.934 2.668.8 2.668-1.067 3.735.533 3.6Z" fill="#ddd" stroke="#fff"/><path d="m137.516 529.497-.8-5.869-3.068-3.068-2.8 1.867-1.467-2.267 1.2-2.267-1.2-1.734 2.534-3.468 2.267-1.734v-2.669l1.734-3.068 3.468-.533.4-2.4 2.8-.534.934.934 4-.267 1.2-1.2 3.468.667 2 .8 2.4-.534.934-1.067 2.534.267h2.668l2.134 1.734-.8 2.668 3.334 1.067.534 2.934 2.4.667 2.8 4.668v4l2.134 1.467 1.467 1.467v2.134l.8 2-2.134 2.134-2.668.667-1.334 1.467-2.134 2h-2.534v1.734l-2 2-2.534 1.734-2.134-.934-2.534-2.8-2.134.133-2.534-2.4-2.534 2.8-4-.534-1.467-3.735-4.135-1.2Z" fill="#ddd" stroke="#fff"/><path d="m136.049 572.311 3.2-1.467 2.134-.133 2.134-2.134 3.868-2.134 4.4-2.668 1.334-2.267h3.6l.533-6.936-1.867-3.334.8-5.869-.8-3.468 2.134-2.134 2.534-2.8-2.534-2.8-2.134.133-2.534-2.4-2.534 2.8-4-.534-1.467-3.735-4.135-1.2-3.2.267-4.535 3.2-3.6 3.735-3.068.934-.8 2.4 1.334 1.734-.533 3.2 2.4 2.4-.667 3.6h-2.534l-2.534 2.137 2 1.867-1.2 3.468 2.668 2.668 4.268 1.734 1.467 2.8 2.534 2.534Zm41.48-46.148 2.4 2.534h4.135l1.067 3.068 2.134 2.134v4.264l2.8 2.8 1.067 3.6 3.6 1.067 1.734-2.8h5.335l1.067-1.2 3.735-.267-.533 2.8 1.6 1.6h2.267l1.334 2.668-2.267 3.2 1.067 2.4-1.867 1.867-.534 3.2-5.735.8-2.134-2.267-3.6 2.534-3.068-.4-2.934-2.934-2.8-2.668h-4.4l-1.334 1.2-4.535-4v-4.26l-3.468-3.6h-2.671l-4-1.6-2-2-2.4.8-.4-2.8 2.534-1.734 2-2v-1.734h2.534l3.468-3.468 2.668-.667Z" fill="#ddd" stroke="#fff"/><path d="m160.057 536.966 2.134.934.4 2.8 2.4-.8 2 2 4 1.6h2.668l3.468 3.6v4.266l4.535 4 1.334-1.2h4.4l5.735 5.6 3.068.4 2.134 3.2v5.6l-2.134 2.134v3.068l1.734 1.734-.934 2.4-1.6.8-2.134 3.868-2.668 3.868-2.534-3.2-3.334.934h-2.8l-4.668-2.4-5.068-2.134-3.068-2.134-1.067-3.868-4.668.133-3.468-3.068-2.4-.934-2-2-.4-2.668-3.334-1.734 1.334-2.267h3.6l.534-6.936-1.867-3.334.8-5.869-.8-3.468Z" fill="#ddd" stroke="#fff"/><path d="m190.601 586.849 1.734 3.468 2.8 2.934h7.736l2.668 2.668 2.134 3.868v4l4.535 1.334 1.2 6 4.135 4.135-.8 4.8 3.2 3.2 1.467 2.4-.133 2.534-5.468-1.067-2.8 2.8-5.068 1.867-4.535-2.534h-4.668l-2.134 3.334h-9.87l-1.067 2.534-2.934 2.8-.4 4.268-5.468-1.067-3.2-3.2v-4.4l1.467-4.4-2.4-2.267h-3.735l-.133-4.535-2.8-2.668-.534-3.334h-3.2l-2.134-2.134-.934-4.4-3.068-1.2-1.734 1.6-2.934-2.8 4.135-3.868-.667-6.135-5.335-5.068-4.4.133v-2.668l-2.934-1.6-5.068-.534-1.334-5.335.267-3.868 1.734-1.6-1.867-4.535 3.2-1.467 2.134-.133 2.125-2.134 3.868-2.134 4.4-2.668 3.334 1.734.4 2.668 2 2 2.4.934 3.468 3.068 4.668-.133 1.067 3.868 3.068 2.134 5.068 2.134 4.668 2.4h2.8l3.334-.934Z" fill="#ddd" stroke="#fff"/><path d="m210.073 554.039 5.869 4v3.735l4.535-1.067 3.334 1.467 3.468 3.468 3.2 2.8 3.468-1.334 1.734 1.867 1.2 5.2 3.2 3.2 1.2 2.8-3.068 4.668-4.135 2-2 1.867-3.334-4.535-4.668-1.867-2.134 2.134-4.135-4.535-2.8 2.934-3.868-.934-2.934 2.934v4.935l2 2-.667 3.468-4 .667-2.668-2.668h-7.736l-2.8-2.934-1.734-3.468 2.668-3.868 2.134-3.868 1.6-.8.934-2.4-1.736-1.726v-3.068l2.134-2.134v-5.6l-2.134-3.2 3.6-2.534 2.134 2.267 5.735-.8.534-3.2Z" fill="#ddd" stroke="#fff"/><path d="m259.157 594.585-1.6-3.6 1.067-2.934-5.468-4.668h-3.6l-2.537 2.531-5.735-5.735-3.068 4.668-4.135 2-2 1.867-3.334-4.535-4.669-1.865-2.134 2.134-4.135-4.535-2.8 2.934-3.87-.933-2.934 2.934v4.935l2 2-.667 3.468-4 .667 2.134 3.868v4l4.535 1.334 1.2 6 4.135 4.135-.8 4.8 3.2 3.2 1.467 2.4h7.869l2.267-4.668 4.268-3.068 2.534.667 1.334-2.934 6-1.067 3.068-7.069 5.068-2.8 3.868-3.868Zm112.703 15.872 5.869-3.868 3.468 1.467h2.8l3.334 1.467 2.4-.934 3.068 5.2 5.2-4h4.8l1.734 2.267-2.534 4.668 3.868 5.468 2.668.934v4.935l3.468.667 2.534 2.534h3.868l1.334 2.934 3.068.4-.8 4.135 8.8 5.468.667 6.669-2.668 3.735h-5.468l-4.935 1.334-4-2.134-4.935.8h-6l-5.735-2.934h-2.267l-2.668 2.534-4.4.934-4.268-2.268h-3.735l-5.068-1.6-7.6.267 1.2-3.2 3.2-3.334-1.734-4.4h-4.4l-.667-2-2.8-.133-2.534-2.534.8-3.068h2.934l2.134-2.134-1.334-4.268 2.267-2.134h3.735l2.132-3.342-.667-5.6Zm-29.476-13.738-2.8 2.934-2.668-3.868h-3.2l-5.2-3.735-2.8-4-2.534 1.067-2.8-.934-1.734-6-3.735-.667-1.867-4.135h-4.535l-4.668-3.6v-2.668l-2.668-1.067-2.4 2.4-8.669 2.4-1.334 1.467 1.867 2.934v2.934l-4.668 3.468h-3.334l-2.534 1.2-1.334-1.334-2.4 1.2.8 3.068v1.867l1.467 1.6-1.744 1.735-2.8 2.8h-2.534l-.8 2.134-1.6 2.534-2.668 1.067 1.067 2-.133 5.735 1.6 1.734-1.2 6.135 2.534 1.6 2.934 2.934 1.867 4.935v4.8l1.467 3.068-1.2 3.068v4.268l-.934 2.134 2.534 1.467 2.4-2.267h3.735l1.334 2.4-1.334 3.334-3.6 1.467.8 1.734 2.4.534-.667 4.4-1.467 1.467.8 3.335h2.134l.4 2 2.668 2.668 2.668-1.334 2-2 2.267 1.2.934 2.267 2.267 1.734 2.934.8 2.8-2.267 1.867-4.4 1.334-2.267 3.468-1.6.667-3.335 2.934-5.468h2.4v-3.868l2.934-3.868v-2.53l4.535-4.535 3.468-1.2v-1.6l3.735-.267 1.6 2.134h2.534v-4.268l-1.467-4.935-5.468-1.734-2.4 1.6-5.468-.534-2.8-4.535-.667-6-2.134-2.134-.934-4.268 4.8-3.6 3.334 1.067 3.735 1.734 2.4 2.534v3.068l4.668 1.6 2.934-2.934 5.068-1.2v-2.668l2.668-4.935 1.067-3.468Zm-159.92-158.986v-4.4l1.2-3.735-3.2-1.067-3.6.8-4.668-2.267 1.6-1.6.667-3.2-2.934-4.668-3.2-1.067 2.4-4.8 2.4-2.4 4.268.667 1.334-2 2.8-.8 2.934-3.6 1.2-3.068 2-3.735 5.068-2.8 3.334-4.8 2.4 1.334 4.135-2.134 3.6-1.334 3.735.667 3.2 1.467 3.6-.8 2.934 1.867.267 2 3.068 3.468-3.334 6.669.4 2.134-1.734 1.734 1.2 6.135 2.534 1.6v2.8l3.468 1.734.934 2.267 1.467.934 2 2h2.267l1.867 1.867.8 2.534 4.535.267 3.334.8 1.467 1.467 2.8.8 1.067 2.8 2.668 2.534 1.734 1.334v2.267l1.867.667h3.735v-1.467l1.867.534h2.4v2.934l1.467 1.467h1.334v1.867l2.668 1.334 1.6 1.6 2.4-2.267.667-2 2.4 1.067 1.734 2.934-1.867 1.867 2.534 1.467v1.334h1.867l2.4.934-1.067 1.067 2.8 3.6-4.935 4.8-2.925 3.066-4.268-1.867-2.267 2.134 4.8 5.068-3.068 1.6v4l-1.467 1.467-5.2-4.535-2.668 4.268-4.935-1.2-2 2.134-3.068-4.4-4.4-2.534-3.735-1.734-1.6-4.4-4.4-4.268-5.735-1.067-2.934-6.269-4.535 2.134-4.8-2.134-5.468 1.334-4.935 2.134-5.2-5.2v-8.8l-4.135-4.268-2.267 2.267-5.468-3.868-2.4-2.4-4 .4Z" fill="#ddd" stroke="#fff"/><path d="m178.196 439.6 4.268-1.867 2.8-.533 4-.4 2.4 2.4 5.468 3.868 2.267-2.267 4.135 4.268v8.8l5.2 5.2v3.868l-5.735.267-1.467 3.068h-2.934l-4.268 4.535h-2.668l-1.2 3.068-4.535-.934-2.134-2.134h-5.068l-3.068 3.068h-3.732l-1.867 1.867-2.534-2.668-2.534-1.867-.4-2.267-.667-2.668 1.6-1.867 2.534-2.534 4.4-2.668-1.6-3.6v-2.134l2.4-2.534-1.067-3.868 1.334-2.8h3.2Z" fill="#ddd" stroke="#fff"/><path d="m266.492 482.682 2.668-3.068-5.2-4.535-2.668 4.268-4.935-1.2-2 2.134-3.068-4.4-8.136-4.268-1.6-4.4-4.4-4.268-5.735-1.067-2.934-6.269-4.535 2.134-4.8-2.134-5.468 1.334-4.935 2.134v3.868l-5.735.267-1.467 3.068h-2.934l-4.268 4.535h-2.675l-1.2 3.068 2.934 2.934h3.866l2 2 3.068-3.2 1.734.4 1.467 4.135 4.8 3.068h2.934v5.068l4.268 2.134v4.135l5.335 1.2 6.8-1.734 2.534-2.534h3.868l1.6 3.735 2.4 2.4h4.135l1.6 1.467 3.468-3.468 5.335-1.867 2.267 2.267 2.668-2.8h6.135Z" fill="#ddd" stroke="#fff"/><path d="m175.662 473.879 3.068-3.068h5.068l2.134 2.134 4.535.934 2.934 2.934h3.868l2 2 3.068-3.2 1.734.4 1.467 4.135 4.8 3.068h2.934v5.068l4.268 2.134v4.135h-4.4l-1.867 4.535h-4.4l-3.2-3.2-2.534 2.534-1.067 4.668-2.934 2.934-5.735.667-4.8 1.467 1.867-6.936 2.4-5.869-5.869-5.869-3.334-3.334-5.6-1.867v-3.2l1.867-3.468Z" fill="#ddd" stroke="#fff"/><path d="m170.061 475.744 1.867-1.867h3.735l2.267 3.735-1.867 3.468v3.2l5.6 1.867 3.334 3.334 5.869 5.869-2.4 5.869-1.867 6.936-4.535.8-2.668 2.8-3.735.8-2.534 2.534-2.8-4.668-2.4-.667-.533-2.934-3.334-1.067.8-2.668-2.134-1.734v-3.2l1.467-.667.667-2.267.267-4.135-1.734-1.734-2.134-.934-1.067-2.134v-2.8l-2-.934-1.069-2.932 2.4-1.87-.133-2.934 1.867-1.867.8-2.8 2.534-1.2.4 2.267 2.532 1.869Z" fill="#ddd" stroke="#fff"/><path d="M173.128 519.094v-4l2.534-2.534 3.735-.8 2.668-2.8 4.535-.8 4.8-1.467 5.735-.667 2.934-2.934 1.067-4.668 2.534-2.534 3.2 3.2h4.4l1.867-4.535h4.4l5.335 1.2 6.8-1.734 2.534-2.534h3.868l1.6 3.735 2.4 2.4h4.135l1.6 1.467 4.668 3.468 5.735 5.735-3.468 3.6-2.668 2.668-4.8-2.8-3.735.8-2.668 2.534-3.2 4.668-6-3.734-2.8 2.8-4.668-.133.4 4.935-2.267 2.267 2.134 4-6.4 3.734v5.335l-4.135 3.6-2 3.2h-2.267l-1.6-1.6.533-2.8-3.735.267-1.067 1.2h-5.335l-1.734 2.8-3.6-1.067-1.067-3.6-2.8-2.8v-4.268l-2.137-2.133-1.067-3.068h-4.133l-2.4-2.534-.8-2v-2.134Z" fill="#ddd" stroke="#fff"/><path d="m211.274 548.436-1.334-2.668 2-3.2 4.135-3.6v-5.335l6.4-3.734 3.868 1.867h8.136l.667 4.135 2.534 2.534-1.2 3.468 2.534 4.668-5.468 1.467-5.068 2.934v5.468l-4.268 1.467-3.868-1.467-4.4 1.6-5.869-4-1.067-2.4Zm24.408-28.675 3.2-4.668 2.668-2.534 3.735-.8 4.8 2.8 6.135-6.269-5.735-5.735-4.668-3.468 3.468-3.468 5.335-1.867 2.267 2.267 2.668-2.8h6.135l.8-10.537 2.668-3.068 1.467-1.467v-4l3.068-1.6-4.8-5.068 2.267-2.134 4.268 1.867 7.869-7.869 2.4-2.134 1.734.533 4.135 5.068-.8 2.4 2 1.067.4 3.334-2.668 2.8v4.4l-4.268.934v2.934l-2.934 2.934v3.335l2.267 2.4v3.334l1.067 3.468-1.467 3.068 1.6 1.6 2.534-3.068 1.6-4.535 3.868-.934 4.135 1.867 2.534 2.534 3.468-3.334 1.867 1.867 1.067 2.534 3.334-.4 2-2.134h3.6l2.134 2.134 4 1.867 2.934 3.068 2.534 2-.667 3.868-3.735 3.2-3.468 1.334-4 4v3.6l2.267 2.267-1.2 3.6v3.735l-4.8 3.068h-4l-.133-4.535-4.535.267-5.2-5.068-4.135 2.934-2.534 4.268-1.2 3.868-2.8 2.8h-3.735l-2.267-2.134-4 4.268v6.4l-3.735 3.734-2.668 2.668-2 5.068-3.735-4.268-1.2-5.468v-3.451l-1.067-3.334v-7.069l-3.735-2.134-1.6-5.2-4.8-.934-3.735-2.267-1.6 2.8-2.534-2.534-4 2.267-3.6-2.267Z" fill="#ddd" stroke="#fff"/><path d="m226.88 518.826 2.8-2.8 6 3.735 2.534 3.868 3.6 2.267 4-2.267 2.534 2.534 1.6-2.8 3.735 2.267 4.8.934 1.6 5.2 3.735 2.134v7.069l1.067 3.334-3.868 2.134-2.668-2.668h-4.935l-2-2.134-5.2 3.068-7.2 1.867-2.534-4.668 1.2-3.468-2.534-2.534-.667-4.135h-8.135l-3.868-1.867-2.134-4 2.267-2.267-.4-4.935Z" fill="#ddd" stroke="#fff"/><path d="m288.766 576.312 1.867 2.934v2.934l-4.668 3.468h-3.334l-2.534 1.2-1.334-1.334-2.4 1.2.8 3.068v1.867l1.467 1.6-4.535 4.535h-2.534l-2.4 4.668-2.668 1.067-2.534-2.534 2.534-2.668-3.735-3.735h-3.6l-1.6-3.6 1.067-2.934-5.468-4.668h-3.6l-2.534 2.534-5.735-5.735-1.2-2.8-3.2-3.2-1.2-5.2-1.734-1.867-3.468 1.334-6.669-6.269-3.334-1.467-4.541 1.064v-3.735l4.4-1.6 3.868 1.467 4.268-1.467v-5.468l5.068-2.934 5.468-1.467 7.2-1.867 5.2-3.068 2 2.134h4.935l2.668 2.668 3.868-2.134v3.468l1.2 5.469 3.735 4.268 4.535.533 2.134 2.934 3.868 1.734 1.467 2.267h2.668l.4 4.135 3.068 2.267-2.934 1.734.267 1.867Z" fill="#ddd" stroke="#fff"/><path d="m271.827 552.438 6.4-6.4v-6.4l4-4.268 2.267 2.134h3.735l2.8-2.8 1.2-3.868 2.534-4.268 4.135-2.934 5.2 5.068 4.535-.267.133 4.535h4l-1.067 4.935-.133 5.6-2.8 4.935-.667 5.468-2.534 5.6-7.336 3.735v2.534l2.934 4.268-2.4 2.4-8.67 2.4-1.334 1.467-3.468-1.334-.267-1.867 2.934-1.734-3.068-2.267-.4-4.135h-2.663l-1.467-2.267-3.868-1.734-2.134-2.934-4.535-.534Zm212.204-152.716h-2.533l-4.535 3.735-3.868.267-1.734 4.135-5.869-.934-1.6 2.534-2.534 2.534-2.534 1.467-5.068 1.734-4.268 1.067-4.935-2.534-2.668.533-3.068-2.534-5.869-2.4-6-3.868-4.4-1.734-7.2-2.8-3.6-3.6-4.268-.4-7.069-4.535-3.468-3.6-5.468-2.4-5.335-4.535-4.8.534-3.735 2.534-23.074.133-2.4 2.4-1.334 3.334-1.467 1.6v1.46l-1.6 1.6-2 2 .934 1.867 2.534 2.534 1.067 2.134-1.467 3.068.667 2.934 1.734 1.734-2 3.334-2 2-1.334-1.334h-2l-2.8-2.267-2.934-.667-2.267-1.467-3.068 1.067-2.534 1.334-.667-3.334-3.468-3.6-3.334-1.867-3.735-.8-1.867-1.867-2.668-.934-3.068-2.267h-2.8l.534 2.934v2.668l2.267 3.334 2.4 2.4-.934 3.068v3.2l-2.934 1.867-.934 3.468 1.734 1.6.4 3.468-.534 2-3.2-.667-2.534.667-.8 2.134-1.067 1.067.4 2.4-2.668 1.334.4 3.868 2.267 1.067 2.134.667 1.867 2 2-2.934 1.467.534 1.2-2.8 2.934-.667h2l1.467 1.467 2.267-1.067.133 2.934 1.867 2-2.668 2.668-2 .934-2.934 2.934-3.468 2.134-.267 2-2.668 1.6-1.734 1.734 2.4 2.534-1.867 3.2-2.134 1.6-2 2.267-2.134-.4-.533-1.867h-3.483l-1.867-.534.133 1.6-2.8.8.4 3.334-2.668 2.8v4.4l-4.268.934v2.934l-2.934 2.934v3.347l2.267 2.4v3.334l1.067 3.468-1.467 3.068 1.6 1.6 2.537-3.07 1.6-4.535 3.868-.934 4.135 1.867 2.534 2.534 3.468-3.334 1.867 1.867 1.069 2.535 3.334-.4 2-2.134h3.6l3.468-1.334v-2.668l-2.267-2.267 2.134-4 4.4 2.4 1.6-1.467 1.6 1.467 2.134-2.134 2.934 1.067 1.067 1.734-.4 2.934 2.267 2.8 2.8-1.067 4.935 2.267 3.068 3.068 3.6-1.734 4 1.467 2.134-2.267 2.267.8 1.6 1.6 2.267-.8 1.334-2.8h2.4l5.083 3.468 5.068 2.668 5.6 2.134 7.736 1.2 1.2-3.2 2-2 .8-4 5.468-5.468v-3.068l1.867-3.468-.8-3.868 2.934-5.6 4.535-2.8.534-4 5.335-3.334-.934-4.935 2-3.735 4.668-4.668 3.334-3.334 2.934.934v3.468l3.735-.4 4.268-4.268 4.135-2.134 2.267-2.668 4.268-.667 5.869.267v-4.935l7.069-4 7.069-1.467h7.6l1.6-4.935h4.141l4-4 5.335-2.668-3.334-3.468 4-1.6v-2.934l-4.4-2.267.667-4.135 1.734-.8 1.067-2.534Z" fill="#ddd" stroke="#fff"/><path d="m317.576 529.897-4.8 3.068-1.067 4.935-.133 5.6-2.8 4.935-.667 5.468-2.534 5.6-7.336 3.735v2.534l2.934 4.268 2.663 1.071v2.668l4.668 3.6h4.532l1.867 4.135 3.735.667 1.734 6 2.8.934 2.534-1.067 2.934-3.2 1.734-1.734v-3.865l1.467-2.934 1.334 1.334h4.4l3.6-1.867 1.067-4.135 2.267-3.868h3.068l2.668 4 1.6-1.734 2.4-2.4-1.734-1.734-.133-2.134 4-2.668 3.868.8 2.668-2.267 2.8-2.668-2.4-2.534v-1.6l2.267-2.267 1.467-4.935-2.8-4.535v-5.735l3.6-3.068h3.868l3.068-3.068 3.334-4.935 4.4-4 2.534-6.269v-4.4l4.535-2.4v-3.468l-7.736-1.2-5.6-2.134-5.068-2.668-5.068-3.468h-2.4l-1.334 2.8-2.267.8-1.6-1.6-2.267-.8-2.134 2.267-4-1.467-3.6 1.734-3.068-3.068-4.935-2.267-2.8 1.067-2.267-2.8.4-2.934-1.067-1.734-2.934-1.067-2.134 2.134-1.6-1.467-1.6 1.467-4.4-2.4-2.134 4 2.267 2.267v2.668l-3.468 1.334 2.134 2.134 4 1.867 2.934 3.068 2.534 2-.667 3.868-3.734 3.2-3.468 1.334-4 4v3.6l2.267 2.267-1.2 3.6ZM874.558 760.64l-7.736-1.067-3.2-2-10.133 1.466h-6.4l-5.2 5.2-5.735 1.334-5.6 1.6-8-.667-5.468-2.4-3.468-3.468-3.2-6.8-4.135-4-5.735-2.267h-5.6l-6.269 1.6-4.4-4.268h-8.69l-5.068-3.735-2.534 2.534-.267-4.268-2.131-2.135-.8-3.735 2.267-2.4v-3.868l2.668-2.668 5.865-5.869 1.467-1.467 2-2 3.2 1.867-.667 2.934 4.135 2 2.534 2.4 5.469 1.6 2.534 2.534 2.8 1.467 3.2 3.2 7.069-1.467 2.667 2.8 3.334 2.8h3.6v3.2l2.4 4h6.4l1.2 4 4.935-2.8h3.735v-6.536l5.068-5.2 6-7.069 3.068-7.736 7.869-7.869 8.936-10.8 1.334-15.872 3.2-10.4-4.8-1.6-2.534-12-2.134-9.736 1.6-3.2 2.4-2.4-3.868-2.668-3.735-1.067-1.334-6 7.069-5.2h3.468v-4.535l3.334-1.467 4.8 1.6 5.068-1.734v-4.4l3.468-2.534 1.867 2h5.6l3.334-2.267 2.134 2.134 6.936 1.334 2.8-2.8 3.068 1.6 4.4-4.4h3.334v-8.685l4-2 2.534-5.2 4.135.934 2 2-4.8 4.535v6l4.135 2.134 1.734 5.335 2.668 3.2 1.6 5.735 3.868 4.135 3.468-1.334 4.935 2.4 3.468 3.468 1.334 3.468-2 6.8-5.068 1.467-4.135 4.268-3.2 5.068-2.267 5.2-3.735 3.735-2.8 5.468 1.734 5.468 3.468 1.067v2.668l2.668 2.668-1.467 5.468-8.536 8.269-4.935 2.267-2.934 2.934-3.868 1.467-.934 6.4-3.068 2.934-3.334 1.334-2.134 7.6h-3.468l-4.4-.667-5.735 5.735-3.068 1.6-2.534-1.067h-2.4l-2.534 2.534v4.135l1.867 2.134-2.934 1.2v7.869l4-.534 2.668 2.667-7.336 7.2.934 4.135Z" fill="#ddd" stroke="#fff"/><path d="m1013.271 687.549 1.334-9.6 1.734-3.735-1.734-7.069-3.068-3.2-2.8-2.8-3.468 2.8-2.4-3.068 1.734-4.4 2.4-7.336 3.468-3.468 7.069-4.135-3.2-5.6-1.467-2.8h-3.868l-1.067-4.8-1.867-2.934 3.334-2v-1.6h-1.734l-3.068-3.2-2.4-.267.534-5.735-1.467-2.534-1.6-4.268-3.468-1.867-2.534 3.6-2.668-1.067-.267-3.735-1.734-1.734-2.667-.8-2.668 2.8-1.334 3.334-4.668-1.2-1.334-2.8 2.667-3.334-1.6-2.534-3.068.934-3.868-.934-2.668-2.8v-2.668l-3.6-.934v-3.868l-3.334-1.2-3.468-4.535-4.935-1.734-1.067-5.068-2.267-2.4-2.667 2.134h-2.8l-2-2.134-3.6-.267-3.868 3.868 1.6 1.6-1.734 3.868 2 2-1.734 4.535 6.4 6.4 3.6-1.467v2.8l1.6 1.467-.8 4.4-3.468 2.134-2 3.868-5.068-1.334-3.334 1.867-4-.4v6l4.135 2.134 1.734 5.335 2.668 3.2 1.6 5.735 3.868 4.135 3.468-1.334 4.935 2.4 3.468 3.468 1.334 3.468-2 6.8-5.068 1.467-4.135 4.268-3.2 5.068-2.267 5.2-3.735 3.735-2.8 5.468 1.734 5.468 3.468 1.067v2.667l2.668 2.668-1.467 5.468-5.2 4.935-3.334 3.334-4.935 2.268-2.934 2.934-3.868 1.467-.934 6.4-3.068 2.934-3.334 1.334-1.067 4.268-1.067 3.334h-3.468l-4.4-.667-5.735 5.735-3.068 1.6-2.534-1.067h-2.4l-2.534 2.534v4.135l1.867 2.134-2.934 1.2v7.869l4-.534 2.668 2.667-7.336 7.2.934 4.135 3.2 3.2 1.734 3.334 6 2 6.669-.934h9.07l6.536-2h7.069l2.8-2.8 5.469-5.469 7.069-3.334 5.068-3.468 4-4 1.867-6.536 8-8 5.469-2.4 4.268 1.6 4.668 2.4 6.269-3.6 4.4-2.667 6 1.2 8.269.667 7.336-2.668 4.268-4.4 3.068-6.936 4.668-1.334v-6.269l-2-2-3.334-6.4 2.4-6.269Z" fill="#ddd" stroke="#fff"/><path d="m943.643 562.575-1.867-5.068-2.8-.267v-3.2l-2.934-3.2-2.4-2.4h-3.6v3.334l-3.068 3.2-4.935-.8v-3.2l-2-1.734v-4l-4.4-.667-4.935-2.267-4.8.534-4.668-.667-2.668 3.2-1.334 4.268-3.068 3.2 1.2 4.268-1.6 5.068-4.135 4.135v7.736l-5.868 4v4.668l-2.534-3.468v-3.868l-2.934-2.934-2.8 1.2-.667 3.6-7.336 2.8h-3.468l-1.334 4.135-2.267 3.334-4.8.4-5.335-5.335-.534-11.2.667-6.669v-6.135l.8-5.6v-5.473l-3.868-1.6-2.8-.934-.4-2.668-1.2-3.068-2.534-2.534v-2.934l1.734-1.734.4-4.135-2.4-2.4h-3.2l-3.468-1.734v-3.2l1.334-1.334-1.467-1.467-1.2-4.935-2.8-4.935-3.334-2.4-3.735 1.067-3.6.267v-4.272l2.934-.8v-2.934l-3.074-3.066-1.2 2.534-1.867 1.867-2.667-.667-2.934 2.934-2.934 1.2-1.867 4v4.135l1.6 4.268-1.334 3.735v3.068l3.868 3.868 2.4 2.4-1.067 3.334-1.6 2.668 2.934 2.8-2.8 2.668-2 1.467v5.869l-2.267 1.467-.934 4-3.868 1.6.934 5.335-1.6 1.6-.667 4.935.934 4.4 2.267 1.067 3.735 3.735 1.467-1.6 3.6 1.334v4l1.2 3.334-2.4-.4-1.734 3.068-1.334 2.534.8 2.134h3.6l1.6 3.468 1.2 3.2-2 2-2 3.334v2.934l-1.2 2.534h-3.2l-2.8-2.8h-3.735l-1.467-2.534-3.468-1.467-.8-2.4-2.8-.667-3.868 2.4-1.067 4.4 2 4.668-2.934 4.4-4.935 4.8-3.2 4.668-1.2 4.8-1.734 4.135 3.2 3.068-3.068 2.134-4.268-2.934-2.134-5.068-3.734-3.6-3.468 1.734-1.467 4.8-5.6 2-4.4-.667-4.668 1.067-.133 6.669-2.534 2.534v6.269l3.068 3.2 2.134 5.068v2.8l-3.468 1.867-1.6 4h-3.217l-.8 4.135-1.6 3.6 2.4 3.468.133 3.6-1.734 1.334v5.068l.934 2.934-1.6 2.8.533 3.6-6.4.4v2.667l-2.8-.4-1.066 2.689 4.135 2.668 6.4 6.4 2.934 1.734h4l3.334 2.534 5.068.667 4.135 4 2.8 1.334h4.935l2-2 4.135 4.135 9.336-9.336 3.6 2.267-1.067 2.534 4.135 2 2.534 2.4 5.468 1.6 2.534 2.534 2.8 1.467 3.2 3.2 7.069-1.467 6 5.6h3.6v3.2l2.4 4h6.4l1.2 4 4.935-2.8h3.735v-6.536l5.068-5.2 6-7.069 3.068-7.736 7.869-7.869 8.936-10.8 1.334-15.872 3.2-10.4-4.8-1.6-4.668-21.741 1.6-3.2 2.4-2.4-3.868-2.667-3.735-1.067-1.334-6 7.069-5.2h3.468v-4.535l3.334-1.467 4.8 1.6 5.068-1.734v-4.4l3.468-2.534 1.867 2h5.6l3.334-2.267 2.134 2.134 6.936 1.334 2.8-2.8 3.068 1.6 4.4-4.4h3.334v-8.67l4-2 2.534-5.2 4.135.934 2 2-4.8 4.535 4 .4 3.334-1.867 5.092 1.323 2-3.868 3.468-2.134.8-4.4-1.6-1.467v-2.8l-3.6 1.467-6.4-6.4 1.734-4.535-2-2 1.734-3.868-1.6-1.6 3.868-3.868 3.6.267 2 2.134h2.8l2.668-2.134.8-2.4Z" fill="#ddd" stroke="#fff"/><g clip-path="url(#a)" transform="translate(725.843 495.753)"><g transform="translate(-725.84 -495.75)" filter="url(#b)"><path d="M949.319 640.332a12.833 12.833 0 0 1-1.842 4.293 8.663 8.663 0 0 1-3.069 2.774 8.983 8.983 0 0 1-4.3.982 9.165 9.165 0 0 1-3.867-.8 7.7 7.7 0 0 1-2.977-2.462 12.146 12.146 0 0 1-1.9-4.232 24.529 24.529 0 0 1-.668-6.1 23.18 23.18 0 0 1 .62-5.548 13.092 13.092 0 0 1 1.842-4.3 8.553 8.553 0 0 1 3.056-2.774 9.01 9.01 0 0 1 4.293-.982 9.166 9.166 0 0 1 3.867.8 7.657 7.657 0 0 1 2.975 2.47 12.276 12.276 0 0 1 1.9 4.243 24.416 24.416 0 0 1 .668 6.093 23.5 23.5 0 0 1-.6 5.542Zm-13.545 2.154a5.916 5.916 0 0 0 1.124 1.528 4.856 4.856 0 0 0 1.5.991 4.885 4.885 0 0 0 1.914.354 4.8 4.8 0 0 0 2.5-.668 5.6 5.6 0 0 0 1.914-1.984 10.809 10.809 0 0 0 1.213-3.274 21.357 21.357 0 0 0 .437-4.527q0-.69-.05-1.366t-.111-1.327l-11.2 8.322a10.383 10.383 0 0 0 .755 1.953Zm-1.508-6.558a10.23 10.23 0 0 0 .07 1.213l11.2-8.28a9.4 9.4 0 0 0-.77-1.884 6.028 6.028 0 0 0-1.111-1.467 4.776 4.776 0 0 0-1.48-.963 4.863 4.863 0 0 0-1.862-.342 4.788 4.788 0 0 0-2.5.668 5.539 5.539 0 0 0-1.914 1.994 10.91 10.91 0 0 0-1.216 3.274 21.481 21.481 0 0 0-.423 4.524c0 .426 0 .843.009 1.262Zm7.276-29.824h-1.528v-2.715h-7.117v2.715h-1.528l-.125-4.147h.144a1.183 1.183 0 0 0 .624-.188 1.888 1.888 0 0 0 .594-.655 6 6 0 0 0 .541-1.281 16.081 16.081 0 0 0 .465-2.038q.213-1.231.364-2.938t.24-3.992h6.061v11.1h1.381Zm-2.964-4.147v-9.62h-2.772q-.065 1.994-.205 3.623t-.364 2.837a11.1 11.1 0 0 1-.541 2.019 2.642 2.642 0 0 1-.748 1.13Zm-8.368-1.995a5.931 5.931 0 0 1-1.074 2.03 4.235 4.235 0 0 1-1.58 1.189 4.8 4.8 0 0 1-1.914.388 4.758 4.758 0 0 1-2.106-.436 3.888 3.888 0 0 1-1.486-1.261 5.779 5.779 0 0 1-.873-2.01 11.3 11.3 0 0 1-.286-2.671 9.51 9.51 0 0 1 .393-2.9 5.88 5.88 0 0 1 1.069-2.028 4.258 4.258 0 0 1 1.578-1.19 4.764 4.764 0 0 1 1.91-.388 4.7 4.7 0 0 1 2.106.436 4.019 4.019 0 0 1 1.491 1.261 5.7 5.7 0 0 1 .888 2 11.1 11.1 0 0 1 .292 2.658 9.5 9.5 0 0 1-.41 2.916Zm-7.379-.838a5.074 5.074 0 0 0 .541 1.573 2.776 2.776 0 0 0 .954 1.021 2.622 2.622 0 0 0 1.408.365 2.448 2.448 0 0 0 1.39-.388 3.02 3.02 0 0 0 .965-1.054 5.237 5.237 0 0 0 .561-1.558 9.513 9.513 0 0 0 .181-1.91 11.237 11.237 0 0 0-.168-2.019 5.037 5.037 0 0 0-.541-1.578 2.773 2.773 0 0 0-.965-1.026 2.646 2.646 0 0 0-1.423-.365 2.43 2.43 0 0 0-1.384.388 3.025 3.025 0 0 0-.954 1.054 5.365 5.365 0 0 0-.557 1.563 9.505 9.505 0 0 0-.183 1.9 10.9 10.9 0 0 0 .172 2.026Zm.927 44.017a8.536 8.536 0 0 1-2.338 2.785 11.153 11.153 0 0 1-3.514 1.811 14.251 14.251 0 0 1-4.365.655c-.393 0-.814 0-1.266-.03s-.9-.048-1.347-.083-.873-.07-1.309-.109-.805-.087-1.144-.142v-3.2a17.2 17.2 0 0 0 2.5.385q1.406.12 2.837.122a10.262 10.262 0 0 0 2.916-.386 6.52 6.52 0 0 0 2.209-1.1 4.85 4.85 0 0 0 1.4-1.746 5.283 5.283 0 0 0 .487-2.3 3.929 3.929 0 0 0-1.772-3.593 9.542 9.542 0 0 0-5.094-1.124h-5.02v-13.531h14.254v3.077h-10.934v7.42h2.309a19.686 19.686 0 0 1 3.71.345 9.524 9.524 0 0 1 3.21 1.2 6.642 6.642 0 0 1 2.268 2.307 7.028 7.028 0 0 1 .86 3.636 7.575 7.575 0 0 1-.86 3.595Zm-4.773-50.785h-5.476v11.039h-1.746v-12.536h7.2Zm-17.552 13.095h-1.591l6.578-15.614h1.593Zm-14.917 46.924h-3.361l13.889-32.956h3.363Zm11.851-46.269h-1.528v-2.715h-7.691v-12.536h1.707v11.059h4.758v-11.059h1.707v11.059h1.161Zm-12.056-2.715h-1.726v-5.188h-1.294a3.215 3.215 0 0 0-.685.067 1.555 1.555 0 0 0-.565.245 1.824 1.824 0 0 0-.463.484 3.456 3.456 0 0 0-.369.777l-1.255 3.616h-1.91l1.381-3.73a4.281 4.281 0 0 1 .408-.833 3.589 3.589 0 0 1 .417-.52 2.171 2.171 0 0 1 .436-.341 2.4 2.4 0 0 1 .437-.2 2.776 2.776 0 0 1-1-.393 2.646 2.646 0 0 1-.736-.711 3.131 3.131 0 0 1-.436-.954 4.011 4.011 0 0 1-.149-1.091 4.47 4.47 0 0 1 .245-1.51 3.043 3.043 0 0 1 .768-1.185 3.636 3.636 0 0 1 1.353-.781 6.356 6.356 0 0 1 2.036-.284h3.117Zm-5.563-7.875a1.913 1.913 0 0 0 .48.72 2.061 2.061 0 0 0 .792.437 3.716 3.716 0 0 0 1.091.148h1.467v-4.535h-1.528a2.62 2.62 0 0 0-1.846.577 2.128 2.128 0 0 0-.62 1.641 2.8 2.8 0 0 0 .157 1.013Zm-3.553 52.5h-17.434v-3.16l6.844-6.8q1.681-1.661 2.733-2.877a15.015 15.015 0 0 0 1.639-2.217 6.669 6.669 0 0 0 .79-1.892 8.641 8.641 0 0 0 .2-1.925 6.394 6.394 0 0 0-.264-1.853 4.37 4.37 0 0 0-.81-1.548 3.741 3.741 0 0 0-1.418-1.052 5.119 5.119 0 0 0-2.084-.384 6.3 6.3 0 0 0-3.056.748 10.411 10.411 0 0 0-2.53 1.945l-1.944-2.329a11.9 11.9 0 0 1 3.453-2.53 10.253 10.253 0 0 1 4.546-.952 9.374 9.374 0 0 1 3.211.526 7.218 7.218 0 0 1 2.5 1.527 6.745 6.745 0 0 1 1.63 2.429 8.675 8.675 0 0 1 .576 3.241 9.347 9.347 0 0 1-.4 2.813 10.813 10.813 0 0 1-1.224 2.582 20.31 20.31 0 0 1-2.067 2.66q-1.246 1.379-2.946 3.016l-4.8 4.677h12.857Zm-1.31-55.031a6.264 6.264 0 0 0-1.408-.57 6.111 6.111 0 0 0-1.593-.2 3.77 3.77 0 0 0-1.6.329 3.327 3.327 0 0 0-1.213.958 4.514 4.514 0 0 0-.766 1.528 7.277 7.277 0 0 0-.268 2.066 5.8 5.8 0 0 0 .989 3.674 3.491 3.491 0 0 0 2.9 1.237 6.31 6.31 0 0 0 1.543-.188 7.372 7.372 0 0 0 1.418-.521v1.611a8.179 8.179 0 0 1-3.154.622 5.2 5.2 0 0 1-4.081-1.587 6.831 6.831 0 0 1-1.423-4.695 8.877 8.877 0 0 1 .393-2.724 5.923 5.923 0 0 1 1.124-2.067 4.936 4.936 0 0 1 1.764-1.31 5.643 5.643 0 0 1 2.322-.46 8.212 8.212 0 0 1 1.619.149 6.739 6.739 0 0 1 1.438.456Zm-11.288-.69h-5.417v3.883h5.21v1.441h-5.207v4.315h5.417v1.458h-7.126v-12.536h7.126Zm-11.192 11.1-.249-7.816-.1-3-.585 1.746-1.853 4.987h-1.179l-1.766-4.8-.585-1.938-.037 3.136-.218 7.683h-1.613l.615-12.536h2.023l1.687 4.721.548 1.591.526-1.591 1.776-4.721h2.08l.6 12.536Zm-.476 44.625h-16.624v-3.274h6.805v-19.317l-6.329 3.442-1.294-3 8.422-4.433h3.117v23.3h5.912Zm-49.431-7.613v-13.095l17.46 6.547Zm-22.353-11.244a6.63 6.63 0 0 1-.437 1.528 5.161 5.161 0 0 1-.8 1.29 4.517 4.517 0 0 1-1.2.991 6.086 6.086 0 0 1-1.648.639 9.278 9.278 0 0 1-2.139.219h-2.684v-12.534h3.232a5.789 5.789 0 0 1 4.378 1.51 6.465 6.465 0 0 1 1.443 4.618 10.41 10.41 0 0 1-.157 1.741Zm-5.932 3.2q4.278 0 4.278-4.8a8.79 8.79 0 0 0-.249-2.252 3.586 3.586 0 0 0-.757-1.487 2.926 2.926 0 0 0-1.275-.821 5.781 5.781 0 0 0-1.8-.253h-1.467v9.618Zm5.736 10.208a5.689 5.689 0 0 1-.292 1.875 3.88 3.88 0 0 1-.858 1.43 3.809 3.809 0 0 1-1.386.91 5.137 5.137 0 0 1-1.883.323 5.673 5.673 0 0 1-1.986-.305 3.391 3.391 0 0 1-1.327-.873 3.43 3.43 0 0 1-.749-1.347 6.1 6.1 0 0 1-.234-1.746v-8.431h1.707v8.293a5.4 5.4 0 0 0 .137 1.294 2.3 2.3 0 0 0 .456.932 1.964 1.964 0 0 0 .821.565 3.493 3.493 0 0 0 1.231.19 2.448 2.448 0 0 0 2.01-.786 3.394 3.394 0 0 0 .655-2.215v-8.278h1.707Zm-12.41 4.365-1.873-4.009a4.315 4.315 0 0 0-.437-.762 2.032 2.032 0 0 0-.476-.48 1.649 1.649 0 0 0-.557-.255 2.757 2.757 0 0 0-.677-.076h-.808v5.583h-1.707v-12.536h3.357a6.507 6.507 0 0 1 1.879.24 3.579 3.579 0 0 1 1.29.672 2.576 2.576 0 0 1 .738 1.041 3.71 3.71 0 0 1 .236 1.346 3.541 3.541 0 0 1-.172 1.108 3.09 3.09 0 0 1-.513.95 3.277 3.277 0 0 1-.845.738 3.832 3.832 0 0 1-1.157.465 1.948 1.948 0 0 1 .9.637 6.831 6.831 0 0 1 .753 1.212l1.986 4.125Zm-3.433-6.953a3.96 3.96 0 0 0 1.091-.14 2.326 2.326 0 0 0 .825-.412 1.861 1.861 0 0 0 .526-.673 2.112 2.112 0 0 0 .188-.914 1.8 1.8 0 0 0-.626-1.5 2.78 2.78 0 0 0-1.77-.5h-1.613v4.147Zm4.431-17.242h-2.885v9.638h2.885v1.458h-7.5v-1.458h2.887v-9.638h-2.887v-1.438h7.5Zm-10.205 24.191h-1.707v-5.755h-5.266v5.755h-1.707v-12.536h1.707v5.3h5.266v-5.3h1.707Zm-.3-13.095h-7.2v-12.534h1.746v11.077h5.476Zm-11.4 0-.873-2.732h-5.216l-.873 2.732h-1.774l4.162-12.534h2.342l4.1 12.534Zm-1.362-4.258-2.119-6.7-2.119 6.7Zm2.492 6.275h-3.71v11.079h-1.726v-11.079h-3.71v-1.458h9.149Zm-14.271-2.016h-2.3l-4.162-12.534h1.927l2.7 8.448.768 2.475.786-2.475 2.715-8.448h1.822Z" fill="#fff" opacity=".9"/></g></g><path d="m448.418 657.939-2-4h-5.6l-4.4-2.667-4.935-.4-.667-6.669-8.8-5.468.8-4.135-3.068-.4-1.334-2.934h-3.868l-2.534-2.534-3.468-.667v-4.935l-2.668-.934-3.873-5.47 2.534-4.668 2.934-2.134-1.2-4 1.734-1.734-.934-4.8 3.868-3.868 3.335.8 2.668-2.668 2.934 1.2 5.2-2.534v-3.735l-1.067-2.934 1.334-4.268 3.068 2.4h4.668l3.468-1.067v-2.94l1.734-1.734 6.135 1.734 2.534-2.534h6.669l1.867-1.867 3.6-1.334 3.735-1.334 1.734-1.734-.267-3.6h2.534l2.934 2.534 2.668 1.334 3.068 3.068h3.334l4.268 1.067 3.468 3.6 2.534 4.4 3.068 4.935v4l4.4.667v3.735l2.267 2.267 3.735 1.334 2.267 2.134h4l2.8 2.534h3.6l-2 2.8-3.6 3.6-4.4 2h-5.33l-3.334-.934-3.735-2-2.4 2.134h-3.6l-2.934-1.867-2.4-1.067-3.868-1.2-3.068-1.067v-2.668l2.267-2.134-3.6-3.468-3.334 2.267-2 3.334-2.668 2.668-.267 3.6 1.467 4.4-3.468 1.734v2.534l2.934 1.467 2.134 2.134 1.067 2.534 3.334 1.867v2.934l-1.6 1.6-4.268.8-2.4 2.4-3.2 3.2v3.868l-.8 2.267-2.4 2.4-1.867.267v3.068l-2.267 2.267-1.2 2.534v2.667Z" fill="#ddd" stroke="#fff"/><path d="M402.804 609.791h-4.8l-5.2 4-3.068-5.2-2.4.934-3.334-1.467h-2.8l-3.468-1.467-5.869 3.868-2.267-2.4-2.4-2.4-3.2-1.734-2.8 2.668-3.068-2.934-2.934-.4-.8-1.6-4-1.334-1.2-2.267-3.735-2.534-3.068 1.2-2.8 2.934-2.668-3.868h-3.213l-5.2-3.735-2.8-4 2.934-3.2 1.734-1.734v-3.868l1.467-2.934 1.334 1.334h4.4l3.6-1.867 1.067-4.135 2.267-3.868h3.068l2.668 4 1.6-1.734 2.4-2.4-1.734-1.734-.133-2.134 4-2.668 3.868.8 2.668-2.267 2.8-2.668-2.4-2.534v-1.6l2.267-2.267 1.467-4.935-2.8-4.535v-5.735l3.6-3.068h3.868l3.068-3.068 3.334-4.935 4.4-4 2.534-6.269v-4.4l4.535-2.4v-3.478l1.2-3.2 2-2 3.068 1.867v2.8l1.867 1.867 2 1.334 2.934 2.934 5.2 5.335 3.334 6 2.668 2.668v6l-2.267 2.934 1.2 6.936-1.467 5.6 2.934 2.8v4.535l-2.668 2.534.934 5.2 3.735 1.867 2.668 3.2.133 3.6h2.546l2.668 2.534-1.467 2.668v5.068l2.534 2.534-1.335 4.285 1.067 2.934v3.734l-5.2 2.534-2.934-1.2-2.668 2.668-3.334-.8-3.868 3.868.934 4.8-1.734 1.734 1.2 4-2.934 2.134Z" fill="#ddd" stroke="#fff"/><path d="m444.15 440.535-.4 7.336.934 6-1.734 5.469-4.135 4.135 2.134 2.134 3.735 3.735 4.4 4.4 6-1.334 4.668 2 4.668-2 5.068 2.668 5.068 4.4-3.868 3.868 3.334 3.735 6 1.067 3.068-3.068 3.334 3.334 2.4-2.4h6l5.335 5.335 1.2 6v3.868l5.068 5.068-1.067 4.4 1.6 4.4 7.736-.934h3.735l3.334 5.335h3.735l4.4 4.668 3.735-.934 5.468 1.467 3.6 3.6 2.134-2.134 6 2.4-1.6 4.268 4.668 2.4 3.6 3.6h16.005l1.734-3.068 4-2.267 4.685-3.051 1.734 4.668 4.535 5.869 2.134-2.134 6.4 2 3.334 5.6 3.334-1.067h3.068l4.668 5.735.133 6.8 5.6 3.735 6.269 2.8-3.334 5.469-8 3.468-5.068 5.068-8.269-6-8.8 3.735-1.6 5.468-5.869-3.068-4.268 1.067-5.068-5.068-5.6 2.134-7.069-.8-1.867-2.934h-7.6l-5.335-2.267-7.069 1.067-2.668 5.2-2.534 6.4.4 6.936-7.336 2-6 4.4-.667 4.668-6.269 3.734h-3.734l-2.8-2.534h-4l-2.134-2.134-3.735-1.2-2.267-2.267v-3.868l-4.535-.667v-4l-3.068-4.8-2.534-4.535-3.468-3.468-4.4-1.2h-3.334l-3.068-3.068-5.735-3.868h-2.546l.267 3.6-1.734 1.734-7.2 2.534-1.867 1.867h-6.669l-2.534 2.534-6.135-1.734-1.734 1.734v3.068l-3.468 1.067h-4.4l-3.068-2.4-2.534-2.534v-5.2l1.334-2.534-2.534-2.534h-2.534l-.133-3.6-2.534-3.2-3.734-2-.934-5.068 2.668-2.668v-4.4l-2.934-2.934 1.2-4.535-.94-7.871 2.267-2.934v-6l-2.668-2.668-3.2-6-5.2-5.2-2.934-2.934-3.734-3.2v-3.068l-3.068-2 .8-3.868 5.468-5.468v-3.068l1.867-3.468-.8-3.868 3.063-5.745 4.535-2.8.534-4 5.335-3.334-.8-4.8 2-3.868 4.535-4.535 3.468-3.468 2.8 1.067v3.468l3.868-.534 4.135-4.135 4.135-2.134 2.4-2.668 3.6-.667Z" fill="#ddd" stroke="#fff"/><g fill="#ddd" stroke="#fff"><path d="m743.715 239.402-.8 1.2 1.867 1.2.8-1.467Zm-8.67-18.006-2 1.2 2.8 1.467 2 1.334 2.267-.534-.667-2.667-2.134.534Zm-19.739-9.87v-2.8l.133-5.068-1.334-2.8-2 .133-2.8 3.468.133 3.068-1.2 2 .8 5.468-2.4 2.4.133 5.335-1.2 4.668-.934 4.668 1.734 1.067 3.868-3.068 2.267-1.467 5.068-2.534 4-.4 5.068-3.868 2.4-4.668-1.6-4-1.866-3.072-2.4 1.067-2.4-4.268-1.867-1.867-2.134 2.668Zm-18.139-21.608-1.867 2.267-1.6 3.068-1.467-.667 1.067-3.868v-4l-4.4 1.467-3.2.8-3.6 1.2-1.467 3.068-.8 2.668-1.873 2.267.667 2.668-3.467 2.668 1.6 1.467 2.4-.8 2 2.8.267 2.668 1.867 2.267 4.668.4.667 2.668 3.2-2 1.6 2.668 4.4 1.6 4.268-2 2-2.8-1.6-3.2-2.668-3.6 2-1.467.8-3.468-1.067-3.868.4-3.868-4.8-3.068Zm-3.601 61.754-2.134 2.4-2.534.534 2.4 1.867 2.4-2.4Zm-33.745-.8-1.067 1.6 1.467 1.2 1.867-2.668Zm-20.807 55.218-2.4 1.2 1.067 2.668 1.867-.8-.534-3.068Zm-17.339-18.139-2.267 1.867 1.334 2.4 2-.4Zm-.8 26.409-.4 2.267h3.468l1.732 1.733.267-2.934-2-.4Zm-11.737-119.64-1.2 1.2 1.467.8 2.134 1.6.667-2ZM596.867 335.3l-1.467 1.866.934 2.4 1.334 1.867 2-2.267.8-2.534-1.734-1.867Zm29.342-166.722-1.734.4-1.067 1.067 1.6 1.734 2.267-.8 1.334-1.334Zm38.147-3.334-1.467 1.6 1.067 1.067 1.334 1.334 2.534-2.4v-1.734Zm16.006-2.134-.534 3.334-2.934 1.334-4.535 3.068v4.135l1.867 1.867-2.534 2.4-1.467 3.068 2.134 2.934.8 3.068 3.868 3.334 3.468-3.334h2.4l3.468-2 4.135-1.334-1.2-4v-5.074l2.534-2.134-2.134-2-4.135-4.268-1.6-3.334Zm-9.871 27.742-2.8-.4.533 3.735v2.265l3.6 1.067 1.467 1.469 2.267-2.267 1.334-3.2-2.268-1.734Zm-44.547 85.362-1.067 1.067 1.467 1.2 2.267-.667Z"/><path d="m776.264 398.254 1.2 2.934 1.734 3.868 3.866 2.668.4 7.336 3.868 7.069v2.938l.934 5.6 1.2 8.67-3.334.934-2.267 3.6-2.134 2.134 1.2 3.734 1.2-1.2 4.133 1.728v3.6l1.467 1.467-1.467 1.334v3.868l3.868 2.134 1.2 6.135 4.535 4.535-1.467 4.268-2.668 4.135 1.067 3.334v2.934l-1.334 1.334v4.4l2.4 1.067h3.6l1.867-1.867h2.132l2 2.4 4-1.467 3.068 1.334 2.4-2.4 3.2.267.133 2.668-1.2 2.534-1.867 1.867-2.668-.667-2.934 2.934-3.068 1.067-1.734 4v4.135l1.6 4.4-1.334 3.734v3.2l3.868 3.868 2.4 2.4-1.067 3.2-1.6 2.668 2.8 2.8-2.657 2.68-2 1.467v5.869l-2.4 1.467-.934 4-3.868 1.6 1.067 5.335-1.734 1.734-.667 4.935 1.067 4.4 2.267 1.067 3.735 3.735 1.467-1.467 3.6 1.334v3.868l1.2 3.334-2.4-.4-1.734 3.068-1.334 2.534.8 2.134h3.6l1.734 3.6 1.2 3.2-2 2-2.134 3.334v2.934l-1.067 2.534h-3.334l-2.668-2.668h-3.733l-1.47-2.527-3.468-1.6-.8-2.4-2.934-.667-3.868 2.4-.934 4.4 2 4.535-3.068 4.4-4.8 4.8-3.334 4.668-1.2 4.8-1.734 4.135 3.068 3.068-3.068 2.134-4.268-2.934-2.134-5.068-3.735-3.734-3.468 1.734-1.468 4.8-5.6 2-4.4-.8-4.668 1.2-.133 6.669-2.668 2.668v6.271l3.068 3.068 2.134 5.068v2.934l-3.468 1.734-1.6 4h-2.668l-.934 4.135-1.467 3.6 2.4 3.6.133 3.6-1.734 1.2v5.2l.934 2.934-1.467 2.8.534 3.6-6.4.4v2.8l-2.8-.534-1.067 2.8 4.135 2.668 6.269 6.269 2.934 1.734-1.2 2.8-2.4-.934-1.867 1.867-4.935-.267-4.268 4.268-5.869-1.067-2.134 2.134-1.334 8-5.2 1.334v3.755l-3.334 3.334v5.735l-4.668 1.334-6.536 5.735-4.668 2h-3.468l-4.535-2.4h-5.068l-5.2-1.867-3.868-3.868 1.6-2.267 2-4.935 4-1.734 3.6-3.6-.534-4.535 3.6-3.6 1.334-4.535-1.334-3.6v-4.268l-4.668-4.668-1.467-5.335-4.535-4.535 1.467-6-1.334-2.668-4.268 1.467-6.536-.667-2 2-4.4-.8-4.268-4.535-2.534-4.268 4-4 2.668-1.067-.267-6.4-2.4-4.535-3.068-1.067-1.734-1.6-.667-3.6 1.067-4.668v-6.683l2.934-5.068 4.935-2.4-.667-5.068-6-2h-3.735l-1.067-3.6-3.334-5.335 2.134-5.735 7.2-7.736-2.267-2.267-6.4.4-1.334-5.068-4.268-4.268-2.667-4-5.335-1.334h-7.069l-6 1.6-4.935-1.6-1.334-4.4 4-4-4.268-9.07 5.068-5.068 8-3.468 3.334-5.468-6.269-2.8-5.6-3.734-.133-6.8 5.2-5.2 1.867-1.867.4-5.068 3.2-3.2v-5.6l-3.334-4.668 2.267-4.268 3.2-4.135 3.068-3.068-1.6-3.6.934-4.668-.934-5.335-2.534 2.534-2.534-2.534-5.068-1.067-1.067-4.668 2.267-2.267-.4-5.068-2-4-2.668-2.668h-2.668l-2.4-4.4 2-1.6v-4l-1.6-2.668v-2.267l3.068-2.8-1.867-3.868-4.935-2.934v-3.068l-2-2 1.867-3.334-.667-4-2.134-2.134.133-3.6 3.068.667.8-2.667 2.4-2.4 1.467-4.268-1.734-3.334h1.734l1.2-3.2-2.134-5.068v-3.468l-3.468-.667.133-4.4-2.667 2.534-1.334-1.334-2.668 2.4-1.467-1.467-.534-2.934-4.268-.667-2.8-2.8-.667-2.4-2-2-.267-4.135 4-3.068 3.334-3.334 1.734-2.668h4.4v-7.736l.4-5.335-4.8-2.668-1.467-2.8-.934 1.2-1.334-2.934 3.068-3.068 4.268-.667-.4-2.4 2.134-2.134-.8-2.934-3.068-1.734-2.8-.534-1.867-1.867-.934-2.4h-2l-.267-2.668 4.4.934 3.734-.533 3.068 3.068 5.735 3.068-1.6 4.4 1.467 1.467 3.868 3.868h6l.934-3.6-2.4-3.334.267-3.068-4.268-1.6-3.068-5.068-1.734-1.734 1.334-5.335 2-4.4-1.734-1.734-1.067-5.6 4.4-4h10.4l5.335 2v-1.367h8.67l5.735-2.4h4.268l2.267-2.267-2.267-3.334-2.668-.934-2.267-2.267 2.534-2.534 1.734 1.734 2.668-.667-1.734-2 1.2-2.8-1.867-1.867 2.267-3.068 3.068-2.4-3.068-.267-.267-3.334 6.269.267 2.4-5.068 6.135-2.4 2.4-2.4 8.4-1.2 2.134-2.134 6-1.734 1.334-1.6-4-1.334 2.267-2.267 5.735-1.334 4.935-.667 1.067-2.4 4-.667-2.134 4v3.2l2.8-2.8 6.936.267.667-3.6 4.4-.934 4.4.934-2-2.668-2.668-2-1.334-2.4h4.935l5.068-1.6h1.6l-.4-3.735-1.734-1.334v-5.335l1.067-3.6 3.334-8.269 4-2.934 3.6-3.735 4.4 2.668 3.334-.4 1.067 4.535-3.468 3.468-2.934 3.735 7.069.4 1.334-1.334h4.4l3.2 3.2-2.934 2.934 1.067 2.934 4.935 1.6 1.067-3.735-2-2 4.935-2.668h4.4l4.535-3.2 2.534 2.534 3.468-1.734 2.534 2.534 2.267 4.4 2.668 2.267 1.6-1.734 2.4 2.4 3.068 3.068-.4 4.668-4.4-.934 1.734 1.734 4.4 2.4 2.8 4.8-2.506 2.526v4.4l-2.267 3.068-2.134 4.4-2.534 2.534-4.4 5.335v2.267l-1.334 6.269-3.334 3.334-1.334 6.936-5.335 1.334-1.734 5.068-3.735 3.735-.934 5.735-1.067 4 4-1.734-.934-4.4 4-2.4 5.6-1.067 2.667-4 3.735-3.068 3.6-1.334 2.134-4.135-1.734-1.734-2.668-.267.267-1.734-.267-3.6 3.334-.267h2.668l.533 3.868 1.734 1.467-.4 2.134-1.467 1.6 1.067 2.534 2 2.934 1.867 1.867-.8 4.4 1.6 3.334 4.535 1.734v2.4l6 4.4 2.8 2.8v5.473l3.2 6h3.468l.4 4.535h-1.867l-.934 3.068-4.268 4.268-3.728 2.539.133 4.535v3.468l-3.334 1.2-1.2 4.4 2.534 2.534v3.735l-1.334 3.068-4.535-1.334-3.334 1.067-4.8 6.8-4.668 1.867-.267 1.734"/></g><path d="m609.007 578.313 2.534 5.2 1.867 3.735-4 4 1.334 4.535 4.8 1.467 6-1.467h7.2l5.335 1.334 2.668 4 4.135 4.135 1.334 5.2 6.536-.533 2.134 2.267-3.734 4.268-3.468 3.334-2.134 5.735 3.335 5.335 1.2 3.6h3.734l6 2 .667 5.068-4.935 2.4-2.8 5.2v6.669l-4.268 1.734-4.668 4.668-2.4-2.4-4.935 2.668-4-1.867h-4.671l-7.6 6.669h-7.736l-4.535 2.4-5.6-.4-5.735 6.135-2.4-2.4 2-2.134-1.734-1.734v-4.135l-.8-5.735-2.8-1.334-3.2 3.2-5.335 1.334h-4.535l-3.868-5.335h-9.6l-4.4-6.135-3.068-2.934-3.735-3.735-6-2.534-4.935-2.668-6-.8h-5.6l-2.668-2.668-4.8-1.2-1.334-3.868-2.534-4.935.8-5.6-2.534-2.668v-4.4l2.4-5.868-.667-2.134 6.269-3.735.8-4.668 6-4.4 7.336-2-.4-6.936 5.2-11.737 7.2-1.067 5.335 2.4h7.6l1.867 2.8 7.2.8 5.469-2.134 5.2 5.2 4.268-1.067 5.869 2.934 1.6-5.468 8.8-3.735Z" fill="#ddd" stroke="#fff"/><path d="m648.217 663.941-.667-3.468 1.2-4.668-4.268 1.734-4.668 4.668-2.4-2.4-4.935 2.668-4-1.867h-4.668l-7.6 6.669h-7.736l-4.535 2.4.667 7.336 1.6 3.068 1.067 6.669-.8 9.6 2.8 4.135 2.668 5.2h4l2.934 5.468 2.4 2.534.934 4.135 3.468 2.134h3.334l.133 3.068-3.334 1.467 1.867 3.334.534 4.268 1.334 3.735 4.268 3.868h4.4l3.735 2h2.267l.133 4h3.068v-3.735l3.068-3.068 3.868-3.868-2-2-1.467-2.8.534-2.4 1.6-1.734-2.134-2.8-2.134-2.134 4-6v-6.536l1.467-1.467v-2.668l-4-.667-2.534 2.534-3.068-3.2 4-1.067v-4.135l.934-3.468-2.134-4.535-1.6-4.4 3.334-2.934 4-4 2.668-1.067v-5.735l-2.668-5.2-3.068-1.067Z" fill="#ddd" stroke="#fff"/><path d="m649.147 682.614 2.534 4.268 4.135 4.668 4.4.8 2-2 6.536.667 4.268-1.467 1.334 2.668-1.467 6 4.535 4.535 1.334 5.2 4.668 4.668v4.268l1.334 3.6-1.334 4.668-3.734 3.6.533 4.535-3.6 3.735-4 1.734-2 4.935-1.6 2.267-4.8 2.534v4.935l-4.268 4.268-8.136-1.334-2 2h-2.272l-2.267 4.4h-3.6l-4.535-4.668 2.134-2.134-.934-4.268 6-6h3.068v-3.735l6.936-6.936-2-2-1.467-2.8.534-2.4 1.6-1.734-2.134-2.8-2.134-2.134 3.6-5.6.4-6.936 1.467-1.467v-2.668l-4-.667-2.534 2.534-3.068-3.2 4-1.6v-3.6l.934-3.468-2.134-4.535-1.6-4.4ZM21.745 643.001l-1.334-2-2.535-2.535-1.2.533v2.134l1.067 2 4.668 4.8h2.265l.667-.8 2.4 1.467 1.2 3.068-1.467 1.469-2.4-.133-1.334 2.534h-2v3.735l.8 2.134-.534 1.734h-4.932l-1.734-.8-1.867 2 3.334 4.135 1.334 2.267.934-.934 2.4-.4v-1.733l1.6-1.334 2.4-2.4 2.4-3.334 2-2 2.134-.934.8 2.934 1.2-2.534v-8l-1.467-1.067-1.329-1.341-2-1.067-.667-2.4-2.8-.934-1.2.667Z" fill="#ddd" stroke="#fff"/><g fill="#ddd" stroke="#fff"><path d="m928.176 176.582-.4-1.6 2.934 1.467 1.6-1.6 2.134-2.134 3.068-3.068 1.864 2.264h1.067l2.534-2.534 2.267-2.668 4.535-2 3.2 2.4-1.867 5.068v2.8l-2.134 2.134-3.334 1.467-3.6 1.467h-3.6l-2.8 2.668-4.268-1.463-2.267-3.2Zm-7.47 4.267h-6.535l-2.134 2.134-3.2 2.267-2.534-2.4-5.869 1.867.533 3.6 1.467 1.467 2.134 2.267 1.6 1.467-2.267 1.867-2.934-2.668-1.734 1.6-2.134-2.134-5.068.934-2.267-1.2-.934 2.668 1.6 1.6-3.068 1.6v3.868l2.4 2.4-.533 2.8h2.133l2.934 2.8-.8 3.2 3.6 1.867 4.8.133 2 2.134h3.6l4.268-1.2v-3.334l-2.534-2.4 1.334-1.334 2.134 2 3.735-6.669 3.468-3.6 1.6 1.6 3.2-3.2 1.067-3.068-3.735-1.2-2.4 2.4-3.068-2.267-3.6-2.134-3.6-2.668 1.2-2.668 1.867-1.867 1.6 5.068 2.267 2.4 4 .667 2.4-.934h2l2-2.134-.934-4.135h-3.334l.8-3.6v-2.661Zm3.335 35.478-1.734 1.6 1.334 4 2.4 2.4 1.866-3.733v-3.068l-1.334-1.334Zm8.269 3.602-2.267 2.4 1.334 3.068 2.267 2.267-1.467 3.2 1.2 1.2 1.866-3.87 4.535-.934 4.135-1.6 5.468-3.334-2.934-5.2h-3.735l-5.469-1.732-2.534 2.267Zm-45.348-8.67-1.734-1.734-3.334-.266 2.134 2.134 1.334 4.8h2.668v-2.668Zm-100.832 78.56-3.734 3.735v2.534h3.068l1.067 2.4 2.668-1.2 2.934-3.068v-4.8h-3.738Zm131.509-142.047-1.2 2.134 1.334 1.334 1.467-1.334Zm-11.337 88.162-3.734-.8-1.334.934 2.267 1.067 2.8 2.267 1.2-1.734Z"/><path d="m1084.894 170.713-4.268 4.268v3.068l2.134 2.134h-4.4l-4 3.2-5.6 2.4-6.269-6.269-3.068-3.068-6.135.4-7.34 1.067-4.268 5.068-4.668 4.668-5.6 8.269v6.4l-4.4 5.6-4.268 4.268-4.668.267-4.268-2.267-6 3.334.667 5.068-4.268-4.4-3.068 3.6h-4.535l-1.6-2.4 3.334-4-4-2.934-6.669 2.934-4.668 2.267-2 5.6-.934 3.068 1.334 7.069v4.268l-3.734 3.6 1.067-8.669-4.268-1.334-3.334 3.334-3.735 1.734 1.6-6 4.268-2.934-.934-2.267-6.4 2.934-8.269 3.068-1.734 5.068-6.269 3.068h-4.268l-2.934 2.934 4.668 2.934.667 3.068-4.935 4.4v4.668l2.668 1.734 2.267-5.735 1.6 1.334v4.935l3.735 2 3.334 3.334 1.6.934-3.334 3.334-4.268-.267-2.4 2.668-1.867 1.867 5.2 2.4v3.334l-4.935-1.334-4.268.267-5.735 1.334-3.068 5.735 1.067 5.735h-5.6l-4.935 1.334-3.068-3.068-5.6-.667v4l2.934 2.934v3.068l1.334 3.334 2.267 7.336-.4 4.268-5.068-2.668-2 2-4.668-.934-3.334-2.267-4.4-4.4-4.535.133v-3.6l-2-2-2.4 2.267-3.068-2.934 1.734-1.734 2.934-.934v-4.935l-2.267-2.267-4.268 2.668v-4.268l-2.534-2.534h-2.534l1.734-5.468-5.335-1.734-1.6 1.6-4.935-3.735-2.134 2.134-1.467 4.135-1.734 1.334-1.734-2-1.734.4-.934 2.668-3.6-2.4-2.4-2.4-2.8 2.134-2.668-2.668-.667 2.668-.934 5.068 3.334 5.068.667 4.4v4l-6 .934-4.668 4-4.668 1.734-2.668-4.268-.667 2.4-.267 1.734h-6.535l-3.735-3.735 1.6-1.6-1.734-2.534-6.669 2-8.4 1.6-5.6 2.934-4.135 4.135-2.134 2.134 3.068 2.934h-2.958l-2.668-3.735v-4.4l-2.4-2.4-2.8 3.868-.934 2.668-4.4-1.734-3.735-.934.534 3.868 1.734 1.467-.4 2.134-1.467 1.6 1.067 2.534 2 2.934 1.867 1.867-.8 4.4 1.6 3.334 4.535 1.734v2.4l6 4.4 2.8 2.8v5.468l3.2 6h3.468l.4 4.535H805.6l-.934 3.068-4.268 4.268-3.732 2.556.133 8-3.334 1.2-1.2 4.4 2.534 2.534v3.735l-1.334 3.068-4.539-1.337-3.334 1.067-4.8 6.8-4.668 1.867v1.867l1.2 2.934 1.734 3.868 3.868 2.668.4 7.336 3.868 7.069v2.934l.934 5.6 1.2 8.67-3.334.934-2.267 3.6-2.134 2.134 1.2 3.735 1.2-1.2 4.135 1.734v3.6l1.467 1.467-1.467 1.334v3.882l3.868 2.134 1.2 6.135 4.535 4.535-1.467 4.268-2.668 4.135 1.067 3.334v2.934l-1.334 1.334v4.4l2.4 1.067h3.6l1.867-1.867h2.134l2 2.4 4-1.467 3.068 1.334 2.4-2.4 3.2.267.133 2.668 3.068 3.068v2.8l-2.934.8v4.268l3.6-.267 3.735-1.067 3.334 2.4 2.8 4.935 1.2 4.8 1.467 1.467-1.334 1.334v3.2l3.468 1.6h3.2l2.4 2.4-.534 4.135-1.734 1.734v2.934l2.534 2.534 1.334 3.068.4 2.668 2.8.934 3.868 1.6v5.469l-.8 5.6v6.275l-.667 6.669.534 11.07 5.335 5.335 4.8-.4 2.267-3.334 1.354-4.14h3.468l7.332-2.8.667-3.6 2.8-1.2 2.934 2.934v3.866l2.534 3.468v-4.535l5.869-4v-7.733l4.135-4.135 1.6-4.935-1.2-4.268 3.068-3.068 1.334-4.4 2.668-3.2 4.668.667 4.668-.533 4.935 2.4 4.268.534v4l2.134 1.867v3.2l4.8.667 3.068-3.068v-3.6h3.6l2.4 2.4 2.934 3.2v3.2l2.8.267 1.867 4.935 2.934 2.934 3.468 3.468-.8 2.4 2.267 2.267 1.067 5.068 4.8 1.867 3.468 4.535 3.335 1.067v3.864l3.6.934 3.868-3.868 4.268-3.6h4.274l2-2 2.4 2.4 3.335.667 1.467-1.467h4.4l1.867 2.4h2.8l.8-3.334 5.6 1.067 2-2 4-.8 3.735 1.734 4.668 4.668 3.6-1.6 4-.934 1.867-2.534 3.068 1.334 2.267-2.267h2.534l2.4 2.4 2.267-2.267 6.536-6.535 4.8.8v-3.068l6-2.267 4.268.8 4.4-2.8-.267-4.535 7.2-4.268 6.8-5.6-2.512-5.87v-4.4l-2.934-2.934 2.534-2.535.8-5.735-6.135-2.668h-4.935l-.534-2.934 3.468-.667-1.867-3.6.934-6.8-4.135-.667-4.135-4.268 3.6-.8.4-5.335-1.6-1.6-.934-2.8 1.334-3.468-2.8-2.8 2.4-3.2-2-2v-4.8l4.535-2.4 3.068-1.734 3.6.4 2.936-2.945 4-1.6.534-3.868-2.534-2.532 1.467-3.735 5.2-.934 6.8-6.8-.267-7.6 4.8-1.6v-2.541l-4.8-4.8-1.067-3.468-5.335-5.335-3.468-.8-.667-4.268.8-5.2-2.668-2.668 4.135-5.335v-4.668l.267-5.869-2.134-2.134-1.063-4.137-2-2-.133-5.2 3.868-.8 3.335.8 4.268 2.4 4.268-2.267 3.468-1.067 3.468-3.468 2.534-4.4 3.334.133 2-1.2 1.467 1.467 1.867-.667v-3.739l-.267-6.135.667-4.135-3.334-3.334-.8-2.668-2.934-2.934-5.2-2.668-1.334-3.2-3.6-4.8v-2.668l-1.867-.8.8-4.4 1.467-1.467-2.534-2.534.667-3.868 5.869-2.4v-2.134l4.4.133-.4-4.935-3.334-.934-2.267-2.934 2.8-2.668h2.8v-3.468l2.8-2v-2.534l3.468-.8 2.134 2.534 2.934-.4 1.467-3.2-.934-2.8 3.068-4.8.934-3.2 3.068-.534v-2.8l-1.467-4-3.6-2.134-3.468-3.468v-4l-.267-4.4-3.334-1.734-2.4-3.2v-3.735l2.667-.533-1.2-3.6-3.734-1.067.667-3.334 3.868-1.467v-3.868l1.867-1.867h4.268l.4-4.535h5.6l2.267-2.267-1.334-4.535 2-3.735-2.667-4.268h-2.534l-2.4-4.668-2.668-2.668h-3.6l-4.535 1.467-4.135-1.867-4.4-.667v-5.2l-3.468-2-1.467-4.4 2.668-4.135v-4.535l3.068-2.134v-4.4l2.134-5.335 4.535-3.468-3.468-5.869-4-1.467-1.067-2.8-4.4-.533-5.335-1.867-1.867-2.4Z"/></g><path d="M145.652 340.102h20.407v6.536l2.4 8.269 8.4 24.275 5.2 2.4 3.2 5.869 2.4 9.336-3.2 6.8-2.934 3.6-2.8.4-1.334 2.4-4.268-.667-2.4 2.4-1.734-6.669-1.734-1.734-2.534-.934 1.334-2.668v-2.668l-2.8-1.334-.4-2.668-3.2-.133-1.867 1.867-2.4-3.068.667-5.735-2-.4-2.267-2.267-2.134 1.734-2.267.667-3.334-1.467-3.6-.4h-5.068l-1.6-3.068-1.867.934-1.6 1.6-2.934-.267-.934-4.4 1.2-4-1.467-3.2-.133-3.2-2.934-2.934 1.467-2.934-2.668-3.2 4.4-2.668 6 1.334.934-3.334 2-2 3.735 1.867 3.068 3.334 4.935 1.467 1.734 4-.667.8v1.2l-1.067 4 1.6-.267 2 1.467.8-.667h.934l2-.934v-1.734l1.067-1.334v-1.6l-.667-.8-1.467 1.734-.533-6.535-4-3.468v-7.6l3.6-.934 1.067-1.067-4.8-2Z" fill="#ddd" stroke="#fff"/><path d="M166.059 340.101v6.536l2.4 8.269 8.4 24.275 5.2 2.4 3.2 5.869 2.4 9.336 5.068-2.8 3.334-4.8 2.4 1.334 4.135-2.134 3.6-1.334 3.735.667 3.2 1.467 3.6-.8 2.934 1.867.267 2 3.068 3.468 1.734-2 1.6-.4 4.4-4.268.667-3.6-.4-3.068 3.735-1.067 1.6-4.535-4.255-4.269.667-5.468 1.067-2.532 2.8-1.467 1.334-3.068-.267-3.468 1.334-1.467 1.734 2.134.934-.934 2.4 1.467 2.8-4 3.2-5.6-3.334-10.4 4.135-4.135 1.734-7.869 4.268-4.4 5.468-1.6 3.068-6.936.934-4.935-3.2-3.2 2.4-2.4-.133-5.735-2.665.253-2.4-1.467-3.735.934-2.4-2.4 1.2-3.2.533-4-10.67-9.6-8.269 15.338-3.735-1.867-7.869 6.269-3.468.267v7.469l-4 1.6v5.735l-5.335 4.268h-6.272l-1.6 14.671v5.735l-9.336 3.334Z" fill="#ddd" stroke="#fff"/></svg>